<?xml version="1.0" standalone="no"?>
<!DOCTYPE svg PUBLIC "-//W3C//DTD SVG 1.1//EN" "http://www.w3.org/Graphics/SVG/1.1/DTD/svg11.dtd" >
<svg xmlns="http://www.w3.org/2000/svg">
<metadata>Generated by IcoMoon</metadata>
<defs>
<font id="Core-icons" horiz-adv-x="1024">
<font-face units-per-em="1024" ascent="880.64" descent="-143.36" />
<missing-glyph horiz-adv-x="1024" />
<glyph unicode="&#x20;" d="" horiz-adv-x="512" />
<glyph unicode="&#xe601;" d="M693.020 565.020c-49.99 49.99-115.5 74.98-181.020 74.98s-131.030-24.99-181.020-74.98c-99.97-99.97-99.97-262.060 0-362.040 49.99-49.99 115.5-74.98 181.020-74.98s131.030 24.99 181.020 74.98c99.97 99.98 99.97 262.060 0 362.040zM512 338.75l-158.39 158.39 45.25 45.25 113.14-113.14 67.88 67.88 45.25-45.25-113.13-113.13zM812.93 275.070c-1.39-3.84-2.83-7.66-4.37-11.45-16.11-39.74-39.76-75.36-70.29-105.89s-66.15-54.18-105.89-70.29c-3.79-1.54-7.62-2.98-11.45-4.37l211.070-211.070 192 192-211.070 211.070zM391.62 680.56c3.79 1.54 7.62 2.98 11.45 4.37l-211.070 211.070-192-192 211.070-211.070c1.39 3.84 2.83 7.66 4.37 11.45 16.11 39.74 39.76 75.36 70.29 105.89 30.52 30.53 66.15 54.18 105.89 70.29z" />
<glyph unicode="&#xe602;" d="M256 64l-256-64v-128h768v128l-256 64zM944 720c0-97.202-78.798-176-176-176s-176 78.798-176 176c0 97.202 78.798 176 176 176s176-78.798 176-176zM641.020 384c0-141.385-114.615-256-256-256s-256 114.615-256 256c0 141.385 114.615 256 256 256s256-114.615 256-256zM864 480h-190.46c10.28-30.84 15.49-63.030 15.49-96 0-21.73-2.28-43.11-6.76-64h341.73v106.67l-160 53.33z" />
<glyph unicode="&#xe603;" d="M576.41 192h-272.41l-304-112v-144h576.41zM640.41 255.92v-383.89l383.59 0.17v383.89l-383.59-0.17zM815.050-48l-112 112 48 48 64-64 112 112 48-48-160-160zM768 576c0-176.731-143.269-320-320-320s-320 143.269-320 320c0 176.731 143.269 320 320 320s320-143.269 320-320z" />
<glyph unicode="&#xe604;" d="M128 896v-1024h768v1024h-768zM512 704c141.38 0 256-114.61 256-256 0-141.38-114.62-256-256-256s-256 114.62-256 256c0 141.39 114.62 256 256 256zM832-64h-640v96l192 96h256l192-96v-96z" />
<glyph unicode="&#xe605;" d="M832 512c0-176.731-143.269-320-320-320s-320 143.269-320 320c0 176.731 143.269 320 320 320s320-143.269 320-320zM656 128h-288l-304-112v-144h896v144z" />
<glyph unicode="&#xe606;" d="M64 832h384v-896h-384v896zM576 832h384v-896h-384v896z" />
<glyph unicode="&#xe607;" d="M64 320h896v-384h-896v384zM64 832h896v-384h-896v384z" />
<glyph unicode="&#xe608;" d="M703.99 830.82c-0.64-105.5-86.35-190.82-191.99-190.82s-191.35 85.32-191.99 190.82l-320.010-126.82 64-256h128v-512h640v512h128l64 256-320.010 126.82z" />
<glyph unicode="&#xe609;" d="M896 576h-256v-448h64c0 70.69 57.31 128 128 128s128-57.31 128-128h64v319.37l-128 128.63zM704 384v128h144l128-128h-272zM256 208c-44.11 0-80-35.89-80-80s35.89-80 80-80 80 35.89 80 80-35.89 80-80 80zM0 128h128c0 70.69 57.31 128 128 128s128-57.31 128-128h192v512h-576v-512zM832 208c-44.11 0-80-35.89-80-80s35.89-80 80-80 80 35.89 80 80-35.89 80-80 80z" />
<glyph unicode="&#xe60a;" d="M1024 799.77c0 0.080 0 0.15 0 0.23v0 32h-194.82c1.040 20.72 1.97 42.040 2.82 64-160 0-320 0-320 0s-160 0-320 0c0.84-21.96 1.78-43.28 2.82-64h-194.82v-32c0-0.080 0-0.17 0-0.25v-32.77h0.32c1.67-81.58 10.98-164.43 49.68-234.45 25.71-46.52 62.3-82.61 108.75-107.28 32.53-17.28 70.45-29.17 113.29-35.59 38.18-77.1 93.93-119.99 175.96-133.66v-256h-128v-64h-64v-64h512v64h-64v64h-128v256c82.030 13.67 137.78 56.56 175.97 133.64 42.84 6.43 80.75 18.32 113.29 35.59 46.45 24.67 83.040 60.77 108.75 107.28 38.7 70.020 48.010 152.87 49.68 234.45h0.32v32.81zM106.010 563.48c-32.060 58.010-40.11 130.76-41.68 203.49h134.25c8.45-127.38 22.22-228.7 45.97-306.63-64.010 16.83-109.72 50.99-138.54 103.14zM917.99 563.48c-28.82-52.15-74.54-86.31-138.54-103.14 23.75 77.93 37.52 179.25 45.97 306.63h134.25c-1.57-72.73-9.62-145.48-41.68-203.49z" />
<glyph unicode="&#xe60b;" d="M128.080 896l-1.91-1024 833.83 512z" />
<glyph unicode="&#xe60c;" d="M304 160l-48-48 48-48h-176v96h-64v-160h240l-48-48 48-48 128 128zM512 512v-640h512v640h-512zM882.59 19.39l-39.69 92.61h-149.8l-39.69-92.61-58.83 25.21 144 336h58.83l144-336-58.82-25.21zM720.53 176h94.94l-47.47 110.77zM0 896v-640h448v320h64v320h-512zM384 384h-256v192h256v-192zM448 640h-384v64h160v64h64v-64h160v-64zM192 512h128v-64h-128v64z" />
<glyph unicode="&#xe60d;" d="M512 896c-282.77 0-512-229.23-512-512s229.23-512 512-512 512 229.23 512 512-229.23 512-512 512zM784 192l-80-80-192 192-192-192-80 80 192 192-192 192 80 80 192-192 192 192 80-80-192-192 192-192z" />
<glyph unicode="&#xe60e;" d="M864.95 655.54l-80 80-272-272-272 272-80-80 272-272-272-272 80-80 272 272 272-272 80 80-272 272z" />
<glyph unicode="&#xe60f;" d="M384 896h-384v-384l640-640 384 384-640 640zM256 560c-44.18 0-80 35.82-80 80s35.82 80 80 80 80-35.82 80-80-35.82-80-80-80z" />
<glyph unicode="&#xe610;" d="M896 896h-768l-64-64v-896l64-64h768l64 64v896l-64 64zM512-64c-35.35 0-64 28.65-64 64s28.65 64 64 64 64-28.65 64-64c0-35.35-28.65-64-64-64zM832 128h-640v640h640v-640z" />
<glyph unicode="&#xe611;" d="M64 350.22h256v-414.22h-256v414.22zM64 832h256v-414.22h-256v414.22zM384 350.22h256v-414.22h-256v414.22zM384 832h256v-414.22h-256v414.22zM704 350.22h256v-414.22h-256v414.22zM704 832h256v-414.22h-256v414.22z" />
<glyph unicode="&#xe612;" d="M64 768v0-832h896v832h-896zM384 320v-63.41h-256v63.41h256zM128 384v64h256v-64h-256zM384 192.59v-64.59h-256v64.59h256zM448 192.59h192v-64.59h-192v64.59zM448 256.59v63.41h192v-63.41h-192zM448 384v64h192v-64h-192zM448 512v64h192v-64h-192zM384 512h-256v64h256v-64zM128 0v64h256v-64h-256zM448 0v64h192v-64h-192zM896 0h-192v64h192v-64zM896 128h-192v64.59h192v-64.59zM896 256.59h-192v63.41h192v-63.41zM896 384h-192v64h192v-64zM896 512h-192v64h192v-64z" />
<glyph unicode="&#xe613;" d="M1024 492.010l-340.11 70.23-171.89 301.76-171.89-301.76-340.11-70.23 233.87-256.73-38.31-345.17 316.44 143.1 316.43-143.1-38.31 345.17 233.88 256.73zM694.71 224.69l19.72-177.66-202.43 91.54v531.47l109.96-193.040 217.58-44.93-149.61-164.23 4.78-43.15z" />
<glyph unicode="&#xe614;" d="M512 864l171.89-301.76 340.11-70.23-233.87-256.73 38.3-345.16-316.43 143.090-316.44-143.090 38.32 345.16-233.88 256.73 340.11 70.23z" />
<glyph unicode="&#xe615;" d="M512 670.040l109.96-193.040 217.58-44.93-149.61-164.23 24.51-220.81-202.44 91.54-202.43-91.54 24.51 220.81-149.62 164.23 217.58 44.93 109.96 193.040zM512 864l-171.89-301.76-340.11-70.23 233.87-256.73-38.31-345.17 316.44 143.1 316.43-143.1-38.31 345.17 233.88 256.73-340.11 70.23-171.89 301.76z" />
<glyph unicode="&#xe616;" d="M0 128h256v-256h-256v256zM768 896h256v-256h-256v256zM384 512h256v-256h-256v256zM64 192h64v128h192v64h-256zM896 576v-128h-192v-64h256v192z" />
<glyph unicode="&#xe617;" d="M256 640h512v-512h-512v512zM128 64h-64v-128h128v64h-64zM320 0h128v-64h-128v64zM64 320h64v-128h-64v128zM896 0h-64v-64h128v128h-64zM576 0h128v-64h-128v64zM896 320h64v-128h-64v128zM64 832v-128h64v64h64v64zM320 832h128v-64h-128v64zM64 576h64v-128h-64v128zM832 832v-64h64v-64h64v128zM576 832h128v-64h-128v64zM896 576h64v-128h-64v128z" />
<glyph unicode="&#xe618;" d="M128 64h-64v-128h128v64h-64zM256 0h128v-64h-128v64zM896 0h-64v-64h128v128h-64zM640 0h128v-64h-128v64zM448 0h128v-64h-128v64zM256 832h128v-64h-128v64zM640 832h128v-64h-128v64zM448 832h128v-64h-128v64zM64 256h64v-128h-64v128zM64 640h64v-128h-64v128zM64 448h64v-128h-64v128zM896 256h64v-128h-64v128zM896 640h64v-128h-64v128zM896 448h64v-128h-64v128zM64 832v-128h64v64h64v64zM832 832v-64h64v-64h64v128z" />
<glyph unicode="&#xe619;" d="M64 832h896v-896h-896v896z" />
<glyph unicode="&#xe61a;" d="M512 896c-282.77 0-512-229.23-512-512s229.23-512 512-512c282.77 0 512 229.23 512 512 0 94.95-25.85 183.87-70.89 260.090l-94.54-94.54c23.99-50.13 37.43-106.27 37.43-165.55 0-212.080-171.92-384-384-384s-384 171.92-384 384c0 212.080 171.92 384 384 384 59.28 0 115.42-13.44 165.55-37.43l94.54 94.54c-76.23 45.040-165.14 70.89-260.090 70.89v0z" />
<glyph unicode="&#xe61b;" d="M208 656l-64 64-48-48 112-112 176 176-48 48zM448 64h448v-64h-448v64zM448 384h448v-64h-448v64zM448 704h448v-64h-448v64zM128 256h192v192h-192v-192zM192 384h64v-64h-64v64zM128-64h192v192h-192v-192zM192 64h64v-64h-64v64z" />
<glyph unicode="&#xe61c;" d="M736 448c-159.060 0-288-128.94-288-288s128.94-288 288-288c159.060 0 288 128.94 288 288s-128.94 288-288 288zM736 96c-35.35 0-64 28.65-64 64s28.65 64 64 64c35.35 0 64-28.65 64-64s-28.65-64-64-64zM384 160c0 47.49 9.32 93.6 27.69 137.030 17.73 41.92 43.1 79.56 75.41 111.87s69.94 57.68 111.87 75.41c43.43 18.37 89.54 27.69 137.030 27.69 10.74 0 21.41-0.5 32-1.45v321.45h-640v-896h336.44c-21.71 26.26-39.4 55.4-52.76 86.97-18.36 43.43-27.68 89.54-27.68 137.030z" />
<glyph unicode="&#xe61d;" d="M768 896h-512l-64-64v-896l64-64h512l64 64v896l-64 64zM512-64c-35.35 0-64 28.65-64 64s28.65 64 64 64 64-28.65 64-64c0-35.35-28.65-64-64-64zM704 128h-384v640h384v-640z" />
<glyph unicode="&#xe61e;" d="M445.84 349.33h130.98l-65.49 152.82zM128 896v-1024h768v1024h-768zM674.64 121.090l-56.68 132.24h-213.27l-56.68-132.24-88.24 37.82 207.43 484h88.24l207.43-484-88.23-37.82z" />
<glyph unicode="&#xe61f;" d="M896 256l128 192-555.52-107.52 107.52 555.52-192-128c0 0-21.76-239.33-39.9-451.59l-89.82-17.38c1.13 6.83 1.72 13.83 1.72 20.98 0 70.69-57.31 128-128 128s-128-57.32-128-128.010 57.31-128 128-128c0.92 0 1.98 0.010 3.17 0.040 0.070 0 0.14 0 0.21 0 24.77 0.57 104.41 6.64 203.5 14.83-8.19-99.090-14.26-178.73-14.83-203.5 0-0.070 0-0.14 0-0.21-0.030-1.18-0.040-2.24-0.040-3.17 0-70.69 57.31-128 128-128s128 57.31 128 128-57.31 128-128 128c-7.15 0-14.15-0.6-20.98-1.72l17.38 89.82c212.26 18.15 451.59 39.91 451.59 39.91zM128 256c-35.35 0-64 28.65-64 64s28.65 64 64 64 64-28.65 64-64-28.65-64-64-64zM448 64c35.35 0 64-28.65 64-64s-28.65-64-64-64-64 28.65-64 64c0 35.35 28.65 64 64 64z" />
<glyph unicode="&#xe620;" d="M640 512h384v384h-128v-173.29c-31.040 35.17-66.92 66.11-106.81 91.83-82.63 53.29-178.48 81.46-277.19 81.46-69.090 0-136.15-13.55-199.31-40.26-60.98-25.79-115.73-62.7-162.73-109.7s-83.91-101.75-109.7-162.73c-26.71-63.16-40.26-130.22-40.26-199.31s13.55-136.15 40.26-199.31c25.79-60.98 62.7-115.73 109.7-162.73s101.75-83.91 162.73-109.7c63.16-26.71 130.22-40.26 199.31-40.26s136.15 13.55 199.31 40.26c60.98 25.79 115.73 62.7 162.73 109.7s83.91 101.75 109.7 162.73c26.71 63.16 40.26 130.22 40.26 199.31h-128c0-211.74-172.26-384-384-384s-384 172.26-384 384c0 211.74 172.26 384 384 384 110.2 0 214.11-48.090 286.030-128h-158.030v-128z" />
<glyph unicode="&#xe621;" d="M384 512h-384v384h128v-173.29c31.040 35.17 66.92 66.11 106.81 91.83 82.63 53.29 178.48 81.46 277.19 81.46 69.090 0 136.15-13.55 199.31-40.26 60.98-25.79 115.73-62.7 162.73-109.7s83.91-101.75 109.7-162.73c26.71-63.16 40.26-130.22 40.26-199.31s-13.55-136.15-40.26-199.31c-25.79-60.98-62.7-115.73-109.7-162.73s-101.75-83.91-162.73-109.7c-63.16-26.71-130.22-40.26-199.31-40.26s-136.15 13.55-199.31 40.26c-60.98 25.79-115.73 62.7-162.73 109.7s-83.91 101.75-109.7 162.73c-26.71 63.16-40.26 130.22-40.26 199.31h128c0-211.74 172.26-384 384-384s384 172.26 384 384c0 211.74-172.26 384-384 384-110.2 0-214.11-48.090-286.030-128h158.030v-128z" />
<glyph unicode="&#xe622;" d="M896 896v-173.29c-31.040 35.17-66.92 66.11-106.81 91.83-82.63 53.29-178.48 81.46-277.19 81.46-69.090 0-136.15-13.55-199.31-40.26-60.98-25.79-115.73-62.7-162.73-109.7s-83.91-101.75-109.7-162.73c-26.71-63.16-40.26-130.22-40.26-199.31h128c0 211.74 172.26 384 384 384 110.2 0 214.11-48.090 286.030-128h-158.030v-128h384v384h-128zM512 0c-110.2 0-214.11 48.090-286.030 128h158.030v128h-384v-384h128v173.29c31.040-35.17 66.92-66.11 106.81-91.83 82.63-53.29 178.48-81.46 277.19-81.46 69.090 0 136.15 13.55 199.31 40.26 60.98 25.79 115.73 62.7 162.73 109.7s83.91 101.75 109.7 162.73c26.71 63.16 40.26 130.22 40.26 199.31h-128c0-211.74-172.26-384-384-384z" />
<glyph unicode="&#xe623;" d="M128 896v-1024h768v1024h-768zM832-64h-640v896h640v-896zM404.69 253.33h213.27l56.67-132.24 88.24 37.82-207.43 484h-88.24l-207.43-484 88.24-37.82 56.68 132.24zM511.33 502.15l65.49-152.81h-130.99l65.5 152.81z" />
<glyph unicode="&#xe624;" d="M0 704h576v-384h-576v384zM1024 448h-384v-192h-384v-192h768l-192 192z" />
<glyph unicode="&#xe625;" d="M128 896v-1024h768v1024h-768zM640 128h-384v64h384v-64zM768 256h-512v64h512v-64zM768 384h-512v64h512v-64zM768 512h-512v64h512v-64z" />
<glyph unicode="&#xe626;" d="M512 768c51.9 0 102.17-10.13 149.43-30.12 45.71-19.33 86.79-47.040 122.1-82.35s63.010-76.39 82.35-122.1c19.98-47.26 30.12-97.53 30.12-149.43s-10.13-102.17-30.12-149.43c-19.33-45.71-47.040-86.79-82.35-122.1s-76.39-63.010-122.1-82.35c-47.26-19.99-97.53-30.12-149.43-30.12s-102.17 10.13-149.43 30.12c-45.71 19.33-86.79 47.040-122.1 82.35s-63.010 76.39-82.35 122.1c-19.99 47.26-30.12 97.53-30.12 149.43s10.13 102.17 30.12 149.43c19.33 45.71 47.040 86.79 82.35 122.1s76.39 63.010 122.1 82.35c47.26 19.98 97.53 30.12 149.43 30.12zM512 896c-282.77 0-512-229.23-512-512s229.23-512 512-512 512 229.23 512 512-229.23 512-512 512v0z" />
<glyph unicode="&#xe627;" d="M768 384c0-141.385-114.615-256-256-256s-256 114.615-256 256c0 141.385 114.615 256 256 256s256-114.615 256-256z" />
<glyph unicode="&#xe628;" d="M64 350.22h416v-414.22h-416v414.22zM64 832h416v-414.22h-416v414.22zM544 350.22h416v-414.22h-416v414.22zM544 832h416v-414.22h-416v414.22z" />
<glyph unicode="&#xe629;" d="M512 896c-282.77 0-512-229.23-512-512s229.23-512 512-512 512 229.23 512 512c0 282.77-229.23 512-512 512zM512 48c-39.76 0-72 32.23-72 72 0 39.76 32.24 72 72 72s72-32.24 72-72c0-39.77-32.24-72-72-72zM692.23 529.92l-0.070-2.63c-0.060-3.48-0.28-7.040-0.51-10.58-0.55-7.13-1.41-14.35-2.71-21.6-1.33-7.26-3.060-14.53-5.21-21.68-4.28-14.32-10.44-28-17.36-40.090-6.98-12.12-14.67-22.54-21.99-31.61-7.36-9.1-14.35-16.81-20.66-23.79-3.030-3.32-6.020-6.6-8.98-9.84-2.84-3.12-5.49-6.080-7.95-8.92-2.48-2.85-4.79-5.58-6.91-8.23-2.15-2.65-4.11-5.21-5.95-7.72-1.85-2.51-3.51-4.93-5.12-7.32-1.55-2.39-3.040-4.74-4.36-7.060-2.68-4.64-4.94-9.18-6.86-13.65-1.94-4.46-3.56-8.86-4.9-13.14-1.35-4.28-2.45-8.43-3.32-12.39-0.94-3.94-1.6-7.7-2.18-11.13-0.26-1.74-0.5-3.39-0.73-4.94-0.2-1.58-0.39-3.060-0.56-4.43-0.080-0.67-0.19-1.39-0.24-1.96-0.060-0.57-0.12-1.13-0.17-1.65-0.12-1.060-0.23-2.020-0.32-2.87-0.3-4.77-0.46-7.32-0.46-7.32l-106.24 1.28c0 0-0.1 2.58-0.28 7.42-0.010 1.54-0.020 3.27-0.030 5.16 0 0.95 0 1.94 0 2.98 0 1.050 0.030 2 0.050 3.070 0.050 2.1 0.060 4.35 0.18 6.77 0.13 2.43 0.24 5 0.42 7.74 0.77 10.95 2.22 24.5 5.8 40.16 1.77 7.82 4.030 16.17 7 24.84 2.99 8.66 6.66 17.65 11.040 26.68 4.37 9.030 9.45 18.090 15.080 26.82 2.81 4.36 5.75 8.68 8.76 12.85 3.010 4.21 6.090 8.3 9.18 12.28 3.090 4 6.2 7.87 9.25 11.62s6.070 7.43 8.98 10.92c5.82 7.010 11.22 13.59 15.68 19.67 4.48 6.1 8.1 11.7 10.72 16.9 2.69 5.2 4.6 10 5.89 15.1 0.65 2.55 1.17 5.18 1.57 7.94 0.37 2.78 0.61 5.7 0.74 8.77 0.020 1.56 0.090 3.11 0.040 4.75v0.9c0 0.090 0 0.16 0 0.070l-0.010 0.24-0.050 2.4c-0.010 0.080-0.010 0.070-0.020 0.11-0.020 0.12-0.040 0.24-0.050 0.36l-0.15 1.62c-0.070 0.58-0.12 1.16-0.22 1.74-0.15 1.16-0.36 2.31-0.6 3.45-1.85 9.14-6.18 17.79-12.15 24.95-3.010 3.55-6.37 6.8-10.1 9.54-1.85 1.39-3.78 2.67-5.78 3.84-2.020 1.14-4.090 2.18-6.23 3.14-4.29 1.85-8.85 3.24-13.64 4.14-2.39 0.45-4.84 0.77-7.34 0.96l-0.59 0.050c-0.27 0 2 0.020 0.93 0.020h-0.42l-1.69 0.020c-1.12 0.010-2.24 0.020-3.36 0.030-0.54-0.010-1.090-0.020-1.63-0.020l-0.72 0.010c-0.27 0-0.41 0.030-0.8 0-5.41-0.21-10.54-0.75-15.33-1.7-4.81-0.89-9.29-2.16-13.44-3.67-8.29-3.050-15.29-7.060-20.97-11.31-2.83-2.13-5.36-4.3-7.57-6.42-2.2-2.14-4.11-4.22-5.76-6.18-0.77-1-1.57-1.93-2.23-2.84-0.35-0.45-0.69-0.89-1.010-1.31-0.3-0.44-0.6-0.86-0.88-1.27-0.6-0.8-1.070-1.58-1.53-2.29-0.23-0.35-0.46-0.69-0.67-1.010-0.2-0.33-0.38-0.64-0.56-0.93-0.75-1.16-1.23-2.090-1.59-2.71s-0.55-0.94-0.55-0.94l-95.7 31.9c0 0 0.24 0.89 0.71 2.61 0.47 1.73 1.19 4.28 2.29 7.56 0.53 1.65 1.14 3.48 1.92 5.46 0.75 1.99 1.58 4.16 2.58 6.46 0.5 1.15 1.010 2.35 1.55 3.59 0.57 1.22 1.17 2.48 1.78 3.77 1.2 2.62 2.68 5.28 4.21 8.13 3.17 5.62 6.93 11.71 11.51 18 4.62 6.25 10.020 12.73 16.34 19.12 12.59 12.79 28.9 25.28 48.64 35 9.83 4.91 20.52 8.99 31.77 12.24 11.27 3.18 23.11 5.52 35.27 6.71 0.71 0.090 1.67 0.15 2.51 0.22l2.6 0.19c1.67 0.11 3.35 0.22 5.040 0.33 1.12 0.050 2.23 0.11 3.36 0.16l2.11 0.1c-0.92-0.010 1.48 0.020 1.36 0.020l0.31 0.010 1.23 0.020c6.55 0.11 13.25-0.11 20.050-0.72 13.6-1.18 27.6-4.050 41.41-8.7s27.35-11.25 40.030-19.58c12.63-8.4 24.41-18.52 34.61-30.24 10.25-11.67 18.96-24.86 25.8-39.060 6.79-14.21 11.75-29.42 14.47-45.030 0.68-3.9 1.25-7.83 1.65-11.76 0.22-1.97 0.38-3.94 0.53-5.91 0.080-0.99 0.13-1.97 0.19-2.96l0.080-1.48 0.070-1.61 0.1-3.48 0.020-0.85v-4.38z" />
<glyph unicode="&#xe62a;" d="M912 400l-144-80v320h-320l80 144-80 80h-128l-80-80 80-144h-320v-768h320v16l-80 128 80 80h128l80-80-80-128v-16h320v320l144-80 80 80v128z" />
<glyph unicode="&#xe62b;" d="M1024 640v256h-256v-96h-192v-384h-192v160h-384v-384h384v160h192v-384h192v-96h256v256h-256v-96h-128v320h128v-96h256v256h-256v-96h-128v320h128v-96z" />
<glyph unicode="&#xe62c;" d="M1024 576v320h-192v-128h-320v-227.98l-156.020-156.020h-169.45c-13.18 37.28-48.73 64-90.53 64-53.020 0-96-42.98-96-96s42.98-96 96-96c41.8 0 77.35 26.72 90.53 64h166.040l159.43-159.43v-224.57h325.47c13.18-37.28 48.73-64 90.53-64 53.020 0 96 42.98 96 96s-42.98 96-96 96c-41.8 0-77.35-26.72-90.53-64h-261.47v159.43l190.86 190.86-190.86 190.87v162.84h256v-128h192z" />
<glyph unicode="&#xe62d;" d="M64 832v-896h896v896h-896zM832 320h-256v-256h-128v256h-256v128h256v256h128v-256h256v-128z" />
<glyph unicode="&#xe62e;" d="M512 896c-282.77 0-512-229.23-512-512s229.23-512 512-512 512 229.23 512 512-229.23 512-512 512zM832 320h-256v-256h-128v256h-256v128h256v256h128v-256h256v-128z" />
<glyph unicode="&#xe62f;" d="M896 448h-320v320h-128v-320h-320v-128h320v-320h128v320h320z" />
<glyph unicode="&#xe630;" d="M64 832v-896h896v896h-896zM466.74 384l-338.74-338.74v677.48l338.74-338.74zM173.26 768h677.49l-338.75-338.74-338.74 338.74zM512 338.74l338.74-338.74h-677.48l338.74 338.74zM557.26 384l338.74 338.74v-677.49l-338.74 338.75z" />
<glyph unicode="&#xe631;" d="M117.6 710.52c-67.57-81.42-106.020-178.86-115.35-278.52h393.87l-278.52 278.52zM512 451.88l326.53 326.52c-188.93 156.79-464.11 156.79-653.040 0l326.51-326.52zM531.89 336h-529.64c10.73-114.61 59.96-226.29 147.71-314.040 199.95-199.95 524.13-199.95 724.080 0 188.5 188.5 199.28 487.42 32.36 688.56l-374.51-374.52z" />
<glyph unicode="&#xe632;" d="M128 832v-768h896v768h-896zM288 768.61c53.020 0 96-42.98 96-96s-42.98-96-96-96-96 42.98-96 96 42.98 96 96 96zM960 256v-128h-768v128l160 160 176-160 32 32-85.44 77.68 229.44 210.32 256-192v-128zM896 0.61h-832v704h-64v-768h896z" />
<glyph unicode="&#xe633;" d="M0 768v-768h1024v768h-1024zM160 704c53.020 0 96-42.98 96-96s-42.98-96-96-96-96 42.98-96 96 42.98 96 96 96zM960 64h-896v128l192 192 192-192 32 32-86.86 86.86 310.86 233.14 256-224v-256z" />
<glyph unicode="&#xe634;" d="M288 464l-64-64-64 64-48-48 64-64-64-64 48-48 64 64 64-64 48 48-64 64 64 64zM288 144l-64-64-64 64-48-48 64-64-64-64 48-48 64 64 64-64 48 48-64 64 64 64zM208 656l-64 64-48-48 112-112 176 176-48 48zM448 64h448v-64h-448v64zM448 384h448v-64h-448v64zM448 704h448v-64h-448v64z" />
<glyph unicode="&#xe635;" d="M768 448h-512l-128-320 128-192h512l128 192zM384 768h256v-256h-256v256z" />
<glyph unicode="&#xe636;" d="M0 509.99v-512h1024v512h-1024zM832 318h-640v64h640v-64zM432 576l80 192h-224l-80-192zM208 768h-208v-192h128zM736 576l80 192h-224l-80-192zM1024 576v192h-128l-80-192z" />
<glyph unicode="&#xe637;" d="M768 832h192v-896h-192v896zM64 832h640v-896h-640v896z" />
<glyph unicode="&#xe638;" d="M832 832l-704-832 64-64 704 832zM448 624c0 114.88-85.96 208-192 208s-192-93.13-192-208 85.96-208 192-208c106.040 0 192 93.12 192 208zM179.020 531.18c-22.58 24.47-35.020 57.43-35.020 92.82s12.44 68.35 35.020 92.82c20.94 22.68 48.28 35.18 76.98 35.18s56.040-12.5 76.98-35.18c22.58-24.47 35.020-57.43 35.020-92.82s-12.44-68.35-35.020-92.82c-20.94-22.68-48.28-35.18-76.98-35.18s-56.040 12.5-76.98 35.18zM768 352c-106.040 0-192-93.13-192-208s85.96-208 192-208 192 93.13 192 208-85.96 208-192 208zM844.98 51.18c-20.94-22.68-48.28-35.18-76.98-35.18s-56.040 12.5-76.98 35.18c-22.58 24.47-35.020 57.43-35.020 92.82s12.44 68.35 35.020 92.82c20.94 22.68 48.28 35.18 76.98 35.18s56.040-12.5 76.98-35.18c22.58-24.47 35.020-57.43 35.020-92.82s-12.44-68.35-35.020-92.82z" />
<glyph unicode="&#xe639;" d="M832 896h-640l-64-64v-896l64-64h640l64 64v896l-64 64zM256 768h512v-640h-512v640zM288-64c-35.35 0-64 28.65-64 64s28.65 64 64 64 64-28.65 64-64c0-35.35-28.65-64-64-64zM512-64c-35.35 0-64 28.65-64 64s28.65 64 64 64 64-28.65 64-64c0-35.35-28.65-64-64-64zM736-64c-35.35 0-64 28.65-64 64s28.65 64 64 64 64-28.65 64-64c0-35.35-28.65-64-64-64z" />
<glyph unicode="&#xe63a;" d="M448 192h320v576h-768v-576h320v-128h-128v-64h384v64h-128v128zM64 704h640v-448h-640v448zM832 640v-128h128v-64h-128v-320h-192v-128h384v640h-192zM928 48c-26.51 0-48 21.49-48 48s21.49 48 48 48c26.51 0 48-21.49 48-48s-21.49-48-48-48z" />
<glyph unicode="&#xe63b;" d="M128 832h320v-896h-320v896zM576 832h320v-896h-320v896z" />
<glyph unicode="&#xe63c;" d="M928 128v192h-384v192h160v384h-384v-384h160v-192h-384v-192h-96v-256h256v256h-96v128h704v-128h-96v-256h256v256z" />
<glyph unicode="&#xe63d;" d="M798.43-91.62c-60.25 0-116.9 23.46-159.5 66.070l-351.32 351.31c-29.2 29.2-45.28 68.020-45.28 109.31s16.080 80.12 45.28 109.31c60.28 60.28 158.35 60.28 218.63 0l250.94-250.94-68.060-68.060-250.95 250.95c-22.75 22.75-59.76 22.75-82.5 0-11.020-11.020-17.090-25.67-17.090-41.25s6.070-30.23 17.090-41.25l351.32-351.32c50.42-50.42 132.46-50.42 182.88 0s50.42 132.46 0 182.88l-451.7 451.69c-78.090 78.090-205.16 78.090-283.25 0-37.83-37.83-58.66-88.13-58.66-141.63s20.83-103.8 58.66-141.63l401.51-401.51-68.060-68.060-401.51 401.51c-56.010 56.010-86.86 130.48-86.86 209.69s30.85 153.68 86.86 209.69 130.48 86.86 209.69 86.86 153.68-30.85 209.69-86.86l451.7-451.69c42.6-42.6 66.070-99.25 66.070-159.5s-23.46-116.9-66.070-159.5c-42.61-42.61-99.26-66.070-159.51-66.070z" />
<glyph unicode="&#xe63e;" d="M256 896h512v-64h-512v64zM448 768h-192l-192-832 287.61-64 160.32 640.070-63.93 63.93zM768 768h-256v-255.64l160.39-640.36 287.61 64z" />
<glyph unicode="&#xe63f;" d="M512.040 832c-0.32 0-0.64 0-0.96-0.010-12.46-0.1-143.040-2.28-143.040-47.99 0-48 104-120 80-144s-224 32-288 0c-89.36-44.68-128.89-105.73-146.34-152.81-8.93-33.13-13.66-67.67-13.66-103.19 0-247.42 229.23-448 512-448s512 200.58 512 448-229.23 448-512 448zM224.040 304c-61.86 0-112 50.14-112 112s50.14 112 112 112 112-50.14 112-112-50.14-112-112-112zM416.040 80c-44.18 0-80 35.82-80 80s35.82 80 80 80c44.18 0 80-35.82 80-80s-35.82-80-80-80zM704.040 704c35.35 0 64-28.65 64-64s-28.65-64-64-64-64 28.65-64 64 28.65 64 64 64zM704.040 112c-44.18 0-80 35.82-80 80s35.82 80 80 80c44.18 0 80-35.82 80-80s-35.82-80-80-80zM848.040 336c-44.18 0-80 35.82-80 80s35.82 80 80 80c44.18 0 80-35.82 80-80s-35.82-80-80-80z" />
<glyph unicode="&#xe640;" d="M768-128h256v256h-96v192h-384v192h160v384h-384v-384h160v-192h-384v-192h-96v-256h256v256h-96v128h320v-128h-96v-256h256v256h-96v128h320v-128h-96z" />
<glyph unicode="&#xe641;" d="M64 832h192v-896h-192v896zM320 832h640v-896h-640v896z" />
<glyph unicode="&#xe642;" d="M768.12 896v-448l-96 96-96-96v448h-448.12v-1024h768v1024z" />
<glyph unicode="&#xe643;" d="M192 832v-832l-64-64v704h-64v-704l67.25-64h699.71l65.040 64v896h-704zM512 0h-256v64h256v-64zM512 128h-256v64h256v-64zM512 256h-256v64h256v-64zM512 384h-256v64h256v-64zM512 512h-256v64h256v-64zM832 0h-256v64h256v-64zM832 128h-256v64h256v-64zM832 256h-256v320h256v-320zM832 704h-576v64h576v-64z" />
<glyph unicode="&#xe644;" d="M896 640h-138.67l10.67 128h-576l64-768h448l14.66 175.88 177.34 192.12 64 128v80l-64 64zM896 512l-64-128-104.73-104.73 24.73 296.73h128l16-16v-48z" />
<glyph unicode="&#xe645;" d="M256 128v-64h256v256h-448v448h704v-128h64v192h-832v-576h384v-128zM576 576v-640h448v640h-448zM800-32c-17.67 0-32 14.33-32 32s14.33 32 32 32 32-14.33 32-32-14.33-32-32-32zM960 64h-320v448h320v-448z" />
<glyph unicode="&#xe646;" d="M1024 768h-1024v-704h448v-64h-256v-64h640v64h-256v64h448v704zM960 128h-896v576h896v-576z" />
<glyph unicode="&#xe647;" d="M584 128.030c0-39.765-32.235-72-72-72s-72 32.235-72 72c0 39.765 32.235 72 72 72s72-32.235 72-72zM692.24 539.88v2.4l-0.020 0.85-0.1 3.48-0.070 1.61-0.080 1.48c-0.060 0.99-0.1 1.97-0.19 2.96-0.15 1.97-0.31 3.94-0.53 5.91-0.41 3.94-0.97 7.86-1.65 11.76-2.72 15.62-7.68 30.82-14.47 45.030-6.84 14.19-15.55 27.39-25.8 39.060-10.2 11.72-21.99 21.84-34.61 30.24-12.68 8.33-26.22 14.93-40.030 19.58s-27.8 7.52-41.41 8.7c-6.8 0.61-13.5 0.83-20.050 0.72l-1.23-0.020-0.31-0.010c0.13 0-2.28-0.020-1.36-0.020l-2.11-0.1c-1.12-0.050-2.24-0.11-3.36-0.16-1.69-0.11-3.36-0.22-5.040-0.33l-2.6-0.19c-0.84-0.070-1.79-0.13-2.51-0.22-12.16-1.19-24-3.53-35.27-6.71-11.25-3.25-21.94-7.34-31.77-12.24-19.73-9.72-36.050-22.22-48.64-35-6.32-6.39-11.72-12.86-16.34-19.12-4.58-6.3-8.34-12.39-11.51-18-1.53-2.85-3.010-5.51-4.21-8.13-0.61-1.3-1.21-2.56-1.78-3.78-0.53-1.24-1.050-2.43-1.55-3.59-1.010-2.29-1.83-4.47-2.58-6.46-0.77-1.98-1.38-3.81-1.92-5.46-1.11-3.27-1.83-5.83-2.29-7.56-0.47-1.72-0.71-2.61-0.71-2.61l95.7-31.9c0 0 0.19 0.32 0.55 0.94s0.84 1.55 1.59 2.71c0.18 0.29 0.36 0.6 0.56 0.93 0.21 0.32 0.44 0.66 0.67 1.010 0.46 0.71 0.93 1.49 1.53 2.29 0.28 0.41 0.58 0.83 0.88 1.27 0.33 0.42 0.66 0.86 1.010 1.31 0.66 0.92 1.46 1.84 2.23 2.84 1.65 1.95 3.55 4.040 5.76 6.18 2.22 2.13 4.74 4.3 7.57 6.43 5.67 4.25 12.67 8.26 20.97 11.31 4.15 1.51 8.64 2.78 13.44 3.67 4.79 0.95 9.92 1.49 15.33 1.7 0.38 0.030 0.53 0 0.8 0l0.72-0.010c0.54 0.010 1.080 0.020 1.63 0.020 1.12-0.010 2.24-0.020 3.36-0.030l1.69-0.020h0.42c1.060 0.010-1.2-0.010-0.93-0.020l0.12-0.010 0.47-0.040c2.49-0.19 4.94-0.51 7.34-0.96 4.79-0.9 9.35-2.29 13.64-4.14 2.13-0.96 4.21-2 6.23-3.14 2-1.17 3.93-2.45 5.78-3.84 3.73-2.74 7.090-5.99 10.1-9.54 5.97-7.17 10.3-15.81 12.15-24.95 0.23-1.14 0.45-2.29 0.6-3.45 0.090-0.58 0.15-1.16 0.22-1.74l0.15-1.62c0.010-0.12 0.020-0.24 0.050-0.36 0.010-0.040 0.010-0.040 0.020-0.11l0.050-2.4 0.010-0.24c0 0.1 0 0 0-0.1v-0.87c0.050-1.64-0.020-3.19-0.040-4.75-0.13-3.060-0.37-5.99-0.74-8.77-0.41-2.76-0.92-5.39-1.57-7.94-1.29-5.1-3.2-9.9-5.89-15.1-2.62-5.2-6.24-10.81-10.72-16.9-4.46-6.080-9.86-12.66-15.68-19.67-2.91-3.48-5.93-7.17-8.98-10.92s-6.16-7.62-9.25-11.62c-3.090-3.98-6.17-8.070-9.18-12.28-3.010-4.18-5.94-8.49-8.76-12.85-5.64-8.73-10.71-17.78-15.080-26.82-4.38-9.030-8.060-18.020-11.040-26.68-2.97-8.67-5.23-17.020-7-24.84-3.58-15.66-5.030-29.21-5.8-40.16-0.18-2.74-0.29-5.31-0.42-7.74-0.12-2.42-0.12-4.67-0.18-6.77-0.020-1.070-0.050-2.020-0.050-3.070 0-1.040 0-2.030 0.010-2.98 0.010-1.9 0.020-3.62 0.030-5.16 0.18-4.84 0.28-7.42 0.28-7.42l106.24-1.28c0 0 0.16 2.55 0.46 7.32 0.1 0.86 0.2 1.82 0.32 2.87 0.060 0.53 0.11 1.080 0.17 1.65 0.050 0.56 0.16 1.28 0.24 1.96 0.17 1.38 0.36 2.86 0.56 4.43 0.23 1.55 0.47 3.2 0.73 4.94 0.58 3.43 1.24 7.2 2.18 11.13 0.87 3.97 1.97 8.12 3.32 12.39 1.35 4.28 2.97 8.68 4.9 13.14 1.92 4.47 4.18 9.010 6.86 13.65 1.32 2.33 2.81 4.67 4.36 7.060 1.61 2.39 3.27 4.81 5.12 7.32 1.83 2.51 3.79 5.070 5.95 7.72 2.13 2.65 4.43 5.38 6.91 8.23 2.46 2.84 5.11 5.8 7.95 8.92 2.96 3.24 5.96 6.53 8.98 9.84 6.31 6.98 13.3 14.69 20.66 23.79 7.32 9.070 15.010 19.49 21.99 31.61 6.92 12.090 13.080 25.77 17.36 40.090 2.16 7.15 3.89 14.42 5.21 21.68 1.29 7.26 2.16 14.47 2.7 21.6 0.23 3.54 0.45 7.1 0.51 10.58l0.070 2.63 0.020 0.66-0.020 1.32z" />
<glyph unicode="&#xe648;" d="M128 191.040h768v-128h-768v128z" />
<glyph unicode="&#xe649;" d="M768 576v-384.96h-512v384.96h512zM896 704h-768v-640.96h768v640.96z" />
<glyph unicode="&#xe64a;" d="M848 640l-80 80-256-256-256 256-80-80 256-256-256-256 80-80 256 256 256-256 80 80-256 256z" />
<glyph unicode="&#xe64b;" d="M512 896c-282.77 0-512-229.23-512-512s229.23-512 512-512 512 229.23 512 512c0 282.77-229.23 512-512 512zM832 320h-640v128h640v-128z" />
<glyph unicode="&#xe64c;" d="M800 576l-288 288-288-288 80-80 144 144v-704h128v704l144-144z" />
<glyph unicode="&#xe64d;" d="M800 576v-128c0-159.060-128.94-288-288-288s-288 128.94-288 288v112h-96v-112c0-51.81 10.16-102.11 30.2-149.49 19.34-45.73 47.020-86.79 82.27-122.040s76.31-62.92 122.040-82.27c27.6-11.67 56.19-19.99 85.49-24.9v-197.3h128v197.3c29.3 4.91 57.89 13.23 85.49 24.9 45.73 19.34 86.79 47.020 122.040 82.27s62.92 76.31 82.27 122.040c20.040 47.38 30.2 97.68 30.2 149.49v128h-96zM512 256c106.040 0 192 85.96 192 192v256c0 106.040-85.96 192-192 192s-192-85.96-192-192v-256c0-106.040 85.96-192 192-192z" />
<glyph unicode="&#xe64e;" d="M64 640h-64v-640h896v64h-832zM1024 768h-896l448-320zM128 672v-544h896v544l-448-320z" />
<glyph unicode="&#xe64f;" d="M1024 768.29h-1024l512-352zM0 688.29v-688h1024v688l-512-352z" />
<glyph unicode="&#xe650;" d="M64 704h896v-128h-896v128zM64 448h896v-128h-896v128zM64 192h896v-128h-896v128z" />
<glyph unicode="&#xe651;" d="M832 896h-640l-64-64v-896l64-64h640l64 64v896l-64 64zM256 768h512v-384h-512v384zM288 64c-35.35 0-64 28.65-64 64s28.65 64 64 64 64-28.65 64-64c0-35.35-28.65-64-64-64zM512 32c-53.020 0-96 42.98-96 96s42.98 96 96 96 96-42.98 96-96-42.98-96-96-96zM736 64c-35.35 0-64 28.65-64 64s28.65 64 64 64 64-28.65 64-64c0-35.35-28.65-64-64-64z" />
<glyph unicode="&#xe652;" d="M640 544h-256l-384 96v-320l64-192 320 64 128 128 128-128 320-64 64 192v320l-384-96zM320 320h-128l-64 64 64 64h128l64-64-64-64zM832 320h-128l-64 64 64 64h128l64-64-64-64z" />
<glyph unicode="&#xe653;" d="M512 864c-194.4 0-352-157.6-352-352 0-240 160-384 352-640 192 256 352 400 352 640 0 194.4-157.6 352-352 352zM512 352c-88.37 0-160 71.63-160 160s71.63 160 160 160c88.37 0 160-71.63 160-160s-71.63-160-160-160z" />
<glyph unicode="&#xe654;" d="M0 704l256 128v-768l-256-128zM768 704l256 128v-768l-256-128zM704 704l-384 128v-768l384-128z" />
<glyph unicode="&#xe655;" d="M608 832c-194.4 0-352-157.6-352-352 0-72.66 22.020-140.18 59.75-196.25l-251.75-251.75 96-96 251.75 251.75c56.070-37.73 123.59-59.75 196.25-59.75 194.41 0 352 157.6 352 352s-157.6 352-352 352zM766.39 321.61c-42.31-42.31-98.56-65.61-158.39-65.61s-116.080 23.3-158.39 65.61c-42.31 42.31-65.61 98.56-65.61 158.39s23.3 116.080 65.61 158.39c42.31 42.31 98.56 65.61 158.39 65.61s116.080-23.3 158.39-65.61c42.31-42.31 65.61-98.56 65.61-158.39s-23.3-116.080-65.61-158.39zM650.67 624h-85.34v-101.33h-101.33v-85.34h101.33v-101.33h85.34v101.33h101.33v85.34h-101.33z" />
<glyph unicode="&#xe656;" d="M608 832c-194.4 0-352-157.6-352-352 0-72.66 22.020-140.18 59.75-196.25l-251.75-251.75 96-96 251.75 251.75c56.070-37.73 123.59-59.75 196.25-59.75 194.41 0 352 157.6 352 352s-157.6 352-352 352zM766.39 321.61c-42.31-42.31-98.56-65.61-158.39-65.61s-116.080 23.3-158.39 65.61c-42.31 42.31-65.61 98.56-65.61 158.39s23.3 116.080 65.61 158.39c42.31 42.31 98.56 65.61 158.39 65.61s116.080-23.3 158.39-65.61c42.31-42.31 65.61-98.56 65.61-158.39s-23.3-116.080-65.61-158.39zM464 522.67h288v-85.33h-288v85.33z" />
<glyph unicode="&#xe657;" d="M608 832c-194.4 0-352-157.6-352-352 0-72.66 22.020-140.18 59.75-196.25l-251.75-251.75 96-96 251.75 251.75c56.070-37.73 123.59-59.75 196.25-59.75 194.41 0 352 157.6 352 352s-157.59 352-352 352zM766.39 321.61c-42.31-42.31-98.56-65.61-158.39-65.61s-116.080 23.3-158.39 65.61c-42.31 42.31-65.61 98.56-65.61 158.39s23.3 116.080 65.61 158.39c42.31 42.31 98.56 65.61 158.39 65.61s116.080-23.3 158.39-65.61c42.31-42.31 65.61-98.56 65.61-158.39s-23.3-116.080-65.61-158.39z" />
<glyph unicode="&#xe658;" d="M815 448v128c0 43.17-8.47 85.090-25.17 124.58-16.12 38.11-39.18 72.33-68.55 101.7s-63.58 52.43-101.7 68.55c-39.49 16.7-81.41 25.17-124.58 25.17s-85.090-8.47-124.58-25.17c-38.11-16.12-72.33-39.19-101.7-68.55-29.37-29.37-52.43-63.58-68.55-101.7-16.7-39.49-25.17-81.41-25.17-124.58v-128h-128v-512h896v512h-128zM303 576c0 105.87 86.13 192 192 192s192-86.13 192-192v-128h-384v128zM495 64c-70.69 0-128 57.31-128 128s57.31 128 128 128 128-57.31 128-128-57.31-128-128-128z" />
<glyph unicode="&#xe659;" d="M1013.77 588.74c0 0-10.010 70.56-40.71 101.64-38.94 40.79-82.59 40.99-102.6 43.38-143.29 10.36-358.24 10.36-358.24 10.36h-0.45c0 0-214.94 0-358.24-10.36-20.020-2.39-63.65-2.59-102.6-43.38-30.7-31.070-40.69-101.64-40.69-101.64s-10.24-82.87-10.24-165.73v-77.69c0-82.86 10.24-165.73 10.24-165.73s9.99-70.57 40.69-101.64c38.95-40.79 90.12-39.5 112.91-43.77 81.93-7.86 348.16-10.29 348.16-10.29s215.17 0.32 358.46 10.68c20.020 2.39 63.66 2.59 102.6 43.37 30.7 31.070 40.71 101.64 40.71 101.64s10.23 82.87 10.23 165.74v77.69c0 82.86-10.23 165.73-10.23 165.73zM406.28 251.18l-0.050 287.72 276.69-144.36-276.64-143.36z" />
<glyph unicode="&#xe65a;" d="M943.16 660.24c-19.94 31.060-43.14 59.82-69.12 85.8s-54.74 49.18-85.8 69.12c-79.69 51.16-174.5 80.84-276.24 80.84s-196.55-29.68-276.24-80.84c-31.060-19.94-59.82-43.14-85.8-69.12s-49.18-54.74-69.12-85.8c-51.16-79.69-80.84-174.5-80.84-276.24s29.68-196.55 80.84-276.24c19.94-31.060 43.14-59.82 69.12-85.8s54.74-49.18 85.8-69.12c79.69-51.16 174.5-80.84 276.24-80.84s196.55 29.68 276.24 80.84c31.060 19.94 59.82 43.14 85.8 69.12s49.18 54.74 69.12 85.8c51.16 79.69 80.84 174.5 80.84 276.24s-29.68 196.55-80.84 276.24zM337.64 796.82c55.19 23.34 113.85 35.18 174.36 35.18s119.17-11.84 174.36-35.18c23.35-9.88 45.66-21.62 66.83-35.16l-114.050-174.080c-36.87 23.070-80.44 36.42-127.14 36.42s-90.27-13.35-127.14-36.42l-114.050 174.080c21.16 13.54 43.48 25.28 66.83 35.16zM688 384c0-33.020-9.040-64.65-25.94-92.070-7.16-11.62-15.72-22.49-25.61-32.38v0c-9.89-9.89-20.76-18.45-32.38-25.61-27.42-16.9-59.050-25.94-92.070-25.94s-64.65 9.040-92.070 25.94c-11.62 7.16-22.49 15.72-32.38 25.61v0c-9.89 9.89-18.45 20.76-25.61 32.38-16.9 27.42-25.94 59.050-25.94 92.070s9.040 64.65 25.94 92.070c7.16 11.62 15.72 22.49 25.61 32.38v0c9.89 9.89 20.76 18.45 32.38 25.61 27.42 16.9 59.050 25.94 92.070 25.94s64.65-9.040 92.070-25.94c11.62-7.16 22.49-15.72 32.38-25.61v0c9.89-9.89 18.45-20.76 25.61-32.38 16.9-27.42 25.94-59.050 25.94-92.070zM134.34 142.81c-13.54 21.16-25.29 43.47-35.16 66.83-23.34 55.19-35.18 113.85-35.18 174.36s11.84 119.17 35.18 174.36c9.88 23.35 21.62 45.66 35.16 66.83l174.080-114.050c-23.070-36.87-36.42-80.44-36.42-127.14s13.35-90.27 36.42-127.14l-174.080-114.050zM686.36-28.82c-55.19-23.34-113.85-35.18-174.36-35.18s-119.17 11.84-174.36 35.18c-23.35 9.88-45.66 21.62-66.83 35.16l114.050 174.080c36.87-23.070 80.44-36.42 127.14-36.42s90.27 13.35 127.14 36.42l114.050-174.080c-21.16-13.54-43.48-25.28-66.83-35.16zM924.82 209.64c-9.88-23.35-21.62-45.66-35.16-66.83l-174.080 114.050c23.070 36.87 36.42 80.44 36.42 127.14s-13.35 90.27-36.42 127.14l174.080 114.050c13.54-21.16 25.29-43.47 35.16-66.83 23.34-55.19 35.18-113.85 35.18-174.36s-11.84-119.17-35.18-174.36z" />
<glyph unicode="&#xe65b;" d="M128 576h256v-576h-256v576zM128 896h896v-256h-896v256zM448 576h576v-576h-576v576zM64 768h-64v-896h896v64h-832z" />
<glyph unicode="&#xe65c;" d="M64 512h256v-576h-256v576zM64 832h896v-256h-896v256zM384 512h576v-576h-576v576z" />
<glyph unicode="&#xe65d;" d="M640 128l-64-64h-128l-64 64h-384v-126.9h1024v126.9zM896 768h-768v-576h768v576zM832 256h-640v448h640v-448z" />
<glyph unicode="&#xe65e;" d="M704 896c-176.73 0-320-143.27-320-320 0-38.61 6.84-75.62 19.37-109.89l-403.37-408.020v-186.090c0 0 189.91 0 192 0v128h128v128h128l147.040 147.040c34.010-12.31 70.7-19.040 108.96-19.040 176.73 0 320 143.27 320 320s-143.27 320-320 320zM800 592c-44.18 0-80 35.82-80 80s35.82 80 80 80 80-35.82 80-80-35.82-80-80-80z" />
<glyph unicode="&#xe65f;" d="M511.98 493.53c60.51 0 109.52-49.050 109.52-109.51 0-60.47-49.020-109.51-109.52-109.53-60.49 0-109.51 49.060-109.51 109.53 0 60.46 49.020 109.51 109.51 109.51zM391.37 156.080c-74.12-74.11-183.81-183.83-183.81-183.83s-132.76 80.37-54.77 158.37c42.33 42.32 93.41 93.4 131.26 131.23 65.62 65.67 173.73-39.36 107.32-105.77zM632.62 611.92c74.11 74.1 183.81 183.83 183.81 183.83s132.77-80.37 54.77-158.34c-42.33-42.34-93.41-93.42-131.26-131.29-65.63-65.64-173.72 39.41-107.32 105.8zM284.070 504.64c-74.11 74.12-183.81 183.8-183.81 183.8s80.36 132.79 158.36 54.77c42.33-42.33 93.41-93.41 131.26-131.27 65.62-65.62-39.39-173.7-105.81-107.3zM739.92 263.38c74.11-74.14 183.79-183.82 183.79-183.82s-80.36-132.76-158.31-54.78c-42.34 42.35-93.41 93.41-131.26 131.28-65.65 65.63 39.38 173.73 105.78 107.32zM758.040 459.37h259.97c0 0 37.070-150.71-73.26-150.71h-185.64c-92.78 0-94.97 150.71-1.070 150.71zM265.95 308.66h-259.97c0 0-37.050 150.69 73.24 150.69h185.64c92.81 0 95-150.69 1.090-150.69zM587.35 137.97v-259.97c0 0-150.71-37.040-150.71 73.23 0 59.88 0 132.090 0.020 185.67-0.020 92.79 150.69 94.97 150.69 1.070zM436.66 630.070c0 104.83-0.020 259.94-0.020 259.94s150.7 37.050 150.7-73.22v-185.63c0-92.8-150.7-95-150.68-1.090z" />
<glyph unicode="&#xe660;" d="M128 896v-1024h768v1024h-768zM192 832h640v-128h-640v128zM704 320v64h128v-64h-128zM832 256v-64h-128v64h128zM704 448v64h128v-64h-128zM192 512h256v-64h-256v64zM512 192h-320v64h320v-64zM576 320h-384v64h384v-64zM832-64h-256v128h256v-128z" />
<glyph unicode="&#xe661;" d="M1024 253.53v258.47h-128v192h64v192h-192v-192h64v-192h-448v192h64v192h-192v-192h64v-192h-320v-258.47h128v-189.53h-64v-192h192v192h-64v189.53h448v-189.53h-64v-192h192v192h-64v189.53z" />
<glyph unicode="&#xe662;" d="M64 640h-64v-640h832v64h-768zM128 768v-640h896v640h-896zM352 640c61.86 0 112-50.14 112-112s-50.14-112-112-112c-61.86 0-112 50.14-112 112s50.14 112 112 112zM512 256h-320v64l96 48h128l96-48v-64zM832 256h-256v64h256v-64zM832 384h-256v64h256v-64zM960 512h-384v128h384v-128z" />
<glyph unicode="&#xe663;" d="M0 768v-768h1024v768h-1024zM224 576c61.86 0 112-50.14 112-112s-50.14-112-112-112-112 50.14-112 112 50.14 112 112 112zM384 192h-320v64l96 48h128l96-48v-64zM832 192h-384v64h384v-64zM832 320h-384v64h384v-64zM960 448h-512v128h512v-128z" />
<glyph unicode="&#xe664;" d="M512 896c-282.77 0-512-229.23-512-512s229.23-512 512-512 512 229.23 512 512c0 282.77-229.23 512-512 512zM576 96h-128v384h128v-384zM512 536c-39.76 0-72 32.23-72 72 0 39.76 32.24 72 72 72s72-32.24 72-72c0-39.76-32.24-72-72-72z" />
<glyph unicode="&#xe665;" d="M64 832v-896h896v896h-896zM768 192l-256 256-256-256-80 80 336 336 336-336-80-80z" />
<glyph unicode="&#xe666;" d="M512 896c-282.77 0-512-229.23-512-512s229.23-512 512-512 512 229.23 512 512-229.23 512-512 512zM768 224l-256 256-256-256-80 80 336 336 336-336-80-80z" />
<glyph unicode="&#xe667;" d="M512 672l448-448-80-80-368 368-368-368-80 80z" />
<glyph unicode="&#xe668;" d="M64 832v-896h896v896h-896zM400 48l-80 80 256 256-256 256 80 80 336-336-336-336z" />
<glyph unicode="&#xe669;" d="M800 384l-448-448-80 80 368 368-368 368 80 80z" />
<glyph unicode="&#xe66a;" d="M64 832v-896h896v896h-896zM704 128l-80-80-336 336 336 336 80-80-256-256 256-256z" />
<glyph unicode="&#xe66b;" d="M512 896c-282.77 0-512-229.23-512-512s229.23-512 512-512 512 229.23 512 512-229.23 512-512 512zM672 128l-80-80-336 336 336 336 80-80-256-256 256-256z" />
<glyph unicode="&#xe66c;" d="M240 384l448 448 80-80-368-368 368-368-80-80z" />
<glyph unicode="&#xe66d;" d="M64 832v-896h896v896h-896zM512 160l-336 336 80 80 256-256 256 256 80-80-336-336z" />
<glyph unicode="&#xe66e;" d="M512 896c-282.77 0-512-229.23-512-512s229.23-512 512-512 512 229.23 512 512-229.23 512-512 512zM512 128l-336 336 80 80 256-256 256 256 80-80-336-336z" />
<glyph unicode="&#xe66f;" d="M512 96l-448 448 80 80 368-368 368 368 80-80z" />
<glyph unicode="&#xe670;" d="M512 672l368-368 80 80-448 448-448-448 80-80zM64 32l80-80 368 368 368-368 80 80-448 448z" />
<glyph unicode="&#xe671;" d="M512 832l-80-80 368-368-368-368 80-80 448 448zM160 832l-80-80 368-368-368-368 80-80 448 448z" />
<glyph unicode="&#xe672;" d="M592 752l-80 80-448-448 448-448 80 80-368 368zM944 752l-80 80-448-448 448-448 80 80-368 368z" />
<glyph unicode="&#xe673;" d="M512 96l-368 368-80-80 448-448 448 448-80 80zM960 736l-80 80-368-368-368 368-80-80 448-448z" />
<glyph unicode="&#xe674;" d="M208 720l-64 64-48-48 112-112 176 176-48 48zM448 128h448v-64h-448v64zM448 448h448v-64h-448v64zM448 768h448v-64h-448v64zM128 320h192v192h-192v-192zM192 448h64v-64h-64v64zM128 0h192v192h-192v-192zM192 128h64v-64h-64v64z" />
<glyph unicode="&#xe675;" d="M512 896c-282.77 0-512-229.23-512-512s229.23-512 512-512 512 229.23 512 512-229.23 512-512 512zM427.96 131.65l-235.72 233.85 90.15 90.87 145.21-144.060 310.050 310.040 90.51-90.51-400.2-400.19z" />
<glyph unicode="&#xe676;" d="M384.95 63.54l-304 304 80 80 224-224 496 496 80-80z" />
<glyph unicode="&#xe677;" d="M934.83 444.58c-16.12 38.11-39.18 72.33-68.55 101.7s-63.58 52.43-101.7 68.55c-39.49 16.7-81.41 25.17-124.58 25.17h-416l112 112-80 80-256-256 256-256 80 80-112 112h416c105.87 0 192-86.13 192-192s-86.13-192-192-192h-576v-128h576c43.17 0 85.090 8.47 124.58 25.17 38.11 16.12 72.33 39.19 101.7 68.55 29.37 29.37 52.43 63.58 68.55 101.7 16.7 39.49 25.17 81.41 25.17 124.58s-8.47 85.090-25.17 124.58z" />
<glyph unicode="&#xe678;" d="M640-32l-512 512v-96l512-512 304 304-48 48zM944 384l-512 512h-304v-304l512-512 304 304zM320 640c-35.35 0-64 28.65-64 64s28.65 64 64 64 64-28.65 64-64-28.65-64-64-64z" />
<glyph unicode="&#xe679;" d="M0 0l320-64h128l128 128 128 256 128 64v-448h63.86l96.14 704-32 176c0 0-130.75 16-128 16 4.96 0-64-128-64-128l-192-256-160-224-160-32-224-128-32-64z" />
<glyph unicode="&#xe67a;" d="M256 896h512v-192h-512v192zM0 640v-512h192v-256h640v256h192v512h-1024zM704 0h-384v256h384v-256zM832 448c-35.35 0-64 28.65-64 64s28.65 64 64 64c35.35 0 64-28.65 64-64s-28.65-64-64-64z" />
<glyph unicode="&#xe67b;" d="M928 128v224h-384v160h160v384h-384v-384h160v-160h-384v-224h-96v-256h256v256h-96v160h320v-160h-96v-256h256v256h-96v160h320v-160h-96v-256h256v256z" />
<glyph unicode="&#xe67c;" d="M64 832v-896h896v896h-896zM832 320h-640v128h640v-128z" />
<glyph unicode="&#xe67d;" d="M651.37 183.23c41.24 103.98 180.63 201.91 180.63 392.77 0 176.73-143.27 320-320 320s-320-143.27-320-320c0-217.78 181.48-314.57 191.56-437.41l267.81 44.64zM384.3-128h256.78l62.92 64v64l-384-64zM320 64v-64l384 64-54.86 54.86z" />
<glyph unicode="&#xe67e;" d="M512 896c-282.77 0-512-229.23-512-512s229.23-512 512-512 512 229.23 512 512-229.23 512-512 512zM432 48l-80 80 256 256-256 256 80 80 336-336-336-336z" />
<glyph unicode="&#xe67f;" d="M752.006 543.996l-399.999-399.999-80.001 80.001 399.999 399.999 80.001-80.001zM941.25 813.25c-54.13 54.14-118.19 82.75-185.25 82.75-36.28 0-72.57-8.46-107.85-25.14-34.98-16.54-69.1-41.3-101.4-73.61-80.31-80.31-94.74-162.67-92.7-217.62 1.12-30.17 7.56-59.98 18.62-87.89l109.75 109.75c3.29 36.76 21.68 72.090 54.84 105.25 40.64 40.65 80.59 61.26 118.74 61.26 40.9 0 74.1-24.61 94.75-45.25 20.64-20.65 45.25-53.85 45.25-94.75 0-38.15-20.61-78.1-61.25-118.75-33.11-33.11-68.46-51.51-105.24-54.83l-109.83-109.82c30.85-12.21 64.030-18.74 97.62-18.74 0 0 0 0 0 0 52.5 0 131.19 16.12 207.96 92.88 32.3 32.3 57.070 66.42 73.61 101.4 16.67 35.3 25.13 71.58 25.13 107.86 0 67.060-28.61 131.12-82.75 185.25zM447.75 172.67c-2.46-35.92-22.95-73.36-61-111.41-40.65-40.65-80.6-61.26-118.75-61.26-40.9 0-74.1 24.61-94.75 45.25-20.64 20.65-45.25 53.85-45.25 94.75 0 38.15 20.61 78.1 61.25 118.75 38.050 38.050 75.49 58.54 111.41 61l106.44 106.43c-31.65 14.4-64.98 21.82-99.1 21.82-36.28 0-72.57-8.46-107.85-25.14-34.98-16.54-69.1-41.3-101.4-73.61s-57.070-66.42-73.61-101.4c-16.68-35.29-25.14-71.57-25.14-107.85 0-67.060 28.61-131.12 82.75-185.25 54.13-54.14 118.19-82.75 185.25-82.75 36.28 0 72.57 8.46 107.85 25.14 34.98 16.54 69.1 41.3 101.4 73.61s57.070 66.42 73.61 101.4c16.68 35.29 25.14 71.57 25.14 107.85 0 34.12-7.42 67.45-21.82 99.1l-106.43-106.43z" />
<glyph unicode="&#xe680;" d="M512 896l-512-512 64-64 448 448 448-448 64 64zM128 272v-336h272v288h224v-288h272v336l-384 384zM896 832h-192v-16l192-192z" />
<glyph unicode="&#xe681;" d="M511.86-67.51c0 70.11 0 99.51 0 99.51l-303.86 303.86c0 0-45.55 0-99.5 0-28.37-28.36-28.37-85.060 0-113.38 28.32-28.37 262.11-261.18 289.98-289.99 13.88-14.36 35.010-21.44 56.24-21.44 21.4 0 42.9 7.2 57.14 21.44zM940.42 764.45c-55.72 55.69-128.76 83.55-201.78 83.55-73.040 0-146.070-27.85-201.8-83.57l-128.14-128.19c-38.48-38.5-36.14-98.59 2.38-137.15 19.25-19.23 44.49-28.85 69.73-28.85 25.25 0 50.51 9.62 69.78 28.88l105.41 108.88h64l160-160c29.86-30.14 41.82-57.060 48-96l16 16c111.34 111.46 107.83 285.040-3.58 396.45zM822.92 403.55c-0.080 0.090-61.32 65.51-131.47 140.45h-8.33l-86.55-89.4c-0.25-0.25-0.5-0.51-0.75-0.76-15.51-15.5-33.63-27.51-53.85-35.7-19.49-7.9-40.070-11.9-61.16-11.9-21.080 0-41.65 4-61.14 11.89-20.21 8.19-38.32 20.19-53.82 35.67-0.020 0.020-0.040 0.040-0.060 0.060-30.44 30.48-47.76 70.36-48.76 112.3-1.040 43.39 15.44 84.35 46.41 115.33l101.060 101.1c-112.080 90.59-276.75 83.8-380.91-20.39-104.22-104.2-110.97-268.97-20.28-381.040l45.19 18.71h99.5l45.26-18.75 303.86-303.86 18.74-45.26v-91.62c42.25 2.55 82.79 24.84 119.89 61.93 28.020 28.040 127.1 125.6 127.18 125.69 76.090 76.090 76.090 199.48-0.010 275.55z" />
<glyph unicode="&#xe682;" d="M720 272l-144-144v704h-128v-704l-144 144-80-80 288-288 288 288z" />
<glyph unicode="&#xe683;" d="M608 800l-80-80 144-144h-544v-128h832zM128 320h-64l352-352 80 80-144 144h544v128h-672z" />
<glyph unicode="&#xe684;" d="M192 64h704v656l-192-144-160-256-160 64-192-256zM64 832h64v-896h-64v896zM64 0h896v-64h-896v64z" />
<glyph unicode="&#xe685;" d="M64 832h576v-64h-576v64zM64 704h576v-64h-576v64zM64 576h576v-64h-576v64zM64 448h576v-64h-576v64zM64 320h576v-64h-576v64zM64 192h576v-64h-576v64zM64 64h384v-64h-384v64zM704 832h256v-896h-256v896z" />
<glyph unicode="&#xe686;" d="M661.43 593.88c9.24-3.91 18.27-8.17 27.12-12.76 47.82 36.54 88.82 67.71 109.62 83.5-81.69 55.17-180.17 87.38-286.17 87.38-282.77 0-512-229.23-512-512 0-92.54 24.55-179.34 67.49-254.25l114.72 57.36c-9.080 15.19-17.14 31.020-24.090 47.46-19.99 47.26-30.12 97.53-30.12 149.43s10.13 102.17 30.12 149.43c19.33 45.71 47.040 86.79 82.35 122.1s76.39 63.010 122.1 82.35c47.26 19.99 97.53 30.12 149.43 30.12s102.17-10.13 149.43-30.12zM936.62 526.18c-15.79-20.8-46.95-61.8-83.5-109.62 4.58-8.85 8.85-17.89 12.76-27.12 19.99-47.27 30.12-97.54 30.12-149.44s-10.13-102.17-30.12-149.43c-6.95-16.44-15.010-32.27-24.090-47.46l114.72-57.36c42.94 74.91 67.49 161.71 67.49 254.25 0 106-32.21 204.48-87.38 286.18zM584.73 177.33c49.91 56.19 311.94 402.080 311.94 402.080l-45.25 45.25c0 0-345.89-262.030-402.080-311.94-1.44-1.25-4.91-4.54-5.22-4.84 0 0 0 0 0 0-17.38-17.37-28.12-41.37-28.12-67.88 0-53.020 42.98-96 96-96 26.51 0 50.51 10.74 67.88 28.12 0 0 0 0 0 0 0.31 0.3 3.6 3.77 4.85 5.21z" />
<glyph unicode="&#xe687;" d="M64 768v128l128-64h640l128 64v-128l-384-384v-384l-128-128v512z" />
<glyph unicode="&#xe688;" d="M768 832h192v-896h-192v896zM64 832h192v-896h-192v896zM320 832h384v-896h-384v896z" />
<glyph unicode="&#xe689;" d="M0 772h512v-128h-512v128zM448 132h256v-128h-256v128zM768 132h256v-128h-256v128zM0 580h1024v-384h-1024v384z" />
<glyph unicode="&#xe68a;" d="M960 512v128h-448l-128 128h-384v-768h64l64 512zM960 448h-768l-64-448h832l64 448z" />
<glyph unicode="&#xe68b;" d="M354.96 704l112-128h493.040v-512h-896v640h290.96zM384 768h-384v-768h1024v640h-528l-112 128z" />
<glyph unicode="&#xe68c;" d="M800 320c-123.71 0-224-100.29-224-224s100.29-224 224-224 224 100.29 224 224-100.29 224-224 224zM928 64h-160v192h64v-128h96v-64zM512 96c0 159.060 128.94 288 288 288 33.66 0 65.97-5.8 96-16.41v208.41h-384l-128 128h-384v-704h528.41c-10.61 30.030-16.41 62.34-16.41 96z" />
<glyph unicode="&#xe68d;" d="M512 640l-128 128h-384v-768h1024v640z" />
<glyph unicode="&#xe68e;" d="M896 832h-768l-128-160v-32l0.020-0.010c0.62-43.99 26.6-81.84 63.98-99.6v-604.39h896v604.39c37.38 17.76 63.36 55.61 63.98 99.6h0.020v32l-128 160.010zM128 256v274.74c51.13 7.31 91.11 49.16 95.58 101.15l32.44 8.1c0.87-61.11 50.66-110.38 111.98-110.38 57.14 0 104.28 42.79 111.14 98.070l32.86 12.32 32.86-12.32c6.86-55.28 54-98.070 111.14-98.070 61.32 0 111.11 49.27 111.98 110.38l0.020 0.010 32.42-8.11c4.47-51.99 44.45-93.84 95.58-101.15v-274.74h-768z" />
<glyph unicode="&#xe68f;" d="M704 768l-384 128-192-64v-960h128v554.67l64 21.33 384-128 192 64v448z" />
<glyph unicode="&#xe690;" d="M704 320v192l-256-192v192l-256-192v512h-128v-896h896v576z" />
<glyph unicode="&#xe691;" d="M837.26 649.83l137.63 192.030-61.78 44.28-137.97-192.53c-0.010 0.010-0.020 0.010-0.030 0.020l-88.050-122.86c0.010-0.010 0.010-0.010 0.020-0.020l-56.7-79.11c-0.010 0.010-0.010 0.020-0.020 0.020l-182.29-254.37c0.010 0 0.020-0.010 0.030-0.010l-56.71-79.13c-0.010 0-0.020 0.010-0.030 0.010l-82.59-115.24c0.010 0 0.020-0.010 0.030-0.010l-83.69-116.77 61.77-44.27 96.53 134.7c39.62-10.52 82.45-16.57 128.59-16.57 352 0 512 352 512 352v64c0 0-59.81 131.57-186.74 233.83zM512 128c-15.63 0-30.93 1.41-45.78 4.090l66.86 93.29c78.4 10.32 138.92 77.4 138.92 158.62 0 10.62-1.040 20.99-3.010 31.030l66.84 93.26c20.48-36.81 32.17-79.18 32.17-124.29 0-141.38-114.62-256-256-256zM327.56 206.48c-44.31 46.020-71.56 108.59-71.56 177.52 0 141.38 114.62 256 256 256 38.94 0 75.83-8.71 108.87-24.26l82.12 114.59c-55.92 23.15-119.49 37.67-190.99 37.67-352 0-512-352-512-352v-64c0 0 75.8-166.76 237.84-270.72l89.72 125.2zM352 384c0-36.63 12.32-70.38 33.020-97.35l178.38 248.91c-16.13 5.47-33.42 8.44-51.4 8.44-88.37 0-160-71.63-160-160z" />
<glyph unicode="&#xe692;" d="M512 768c-352 0-512-352-512-352v-64c0 0 160-352 512-352s512 352 512 352v64c0 0-160 352-512 352zM512 128c-141.38 0-256 114.62-256 256s114.62 256 256 256 256-114.62 256-256-114.62-256-256-256zM672 384c0-88.366-71.634-160-160-160s-160 71.634-160 160c0 88.366 71.634 160 160 160s160-71.634 160-160z" />
<glyph unicode="&#xe693;" d="M512 864l-512-960h1024l-512 960zM592 528l-32-352h-96l-32 352h160zM512-16c-39.76 0-72 32.23-72 72 0 39.76 32.23 72 72 72 39.76 0 72-32.24 72-72 0-39.77-32.24-72-72-72z" />
<glyph unicode="&#xe694;" d="M64 448h192v-192h-192v192zM416 448h192v-192h-192v192zM768 448h192v-192h-192v192z" />
<glyph unicode="&#xe695;" d="M640 84.41l-256 416-101.18-164.41h-218.82v-400h896v400h-165.18zM64 832v-400h165.18l154.82 251.59 256-416 101.18 164.41h218.82v400z" />
<glyph unicode="&#xe696;" d="M1024.012 704.006l-111.998-111.998-191.999 191.999 111.998 111.998 191.999-191.999zM848.005 527.994l-527.992-527.992-191.999 191.999 527.992 527.992 191.999-191.999zM0-128l256 64-192 192z" />
<glyph unicode="&#xe697;" d="M336 768c-150 0-336 0-336 0v-704c0 0 170 0 320 0 80 0 128-48 128-128 6.35 0 16 0 16 0s0 624 0 704-48 128-128 128zM688 768c-80 0-128-48-128-128s0-704 0-704 9.65 0 16 0c0 80 48 128 128 128 150 0 320 0 320 0v704c0 0-186 0-336 0zM800 224l-144 144 48 48 64-64v224h64v-224l64 64 48-48-144-144z" />
<glyph unicode="&#xe698;" d="M512 896c-282.77 0-512-229.23-512-512s229.23-512 512-512c282.77 0 512 229.23 512 512s-229.23 512-512 512zM163.64 102.3c-62.31 76.96-99.64 174.97-99.64 281.7 0 40.080 5.27 78.92 15.14 115.89l144.86-115.89-60.36-281.7zM784 320v-192l-80-128h-64l-64 128v192h-128l-64 64v128l64 64h272l64-64v-64l64-64-64-64zM768 640v64h-192l-64-64-64 64v64h64v64c190.35 0 352.96-118.71 417.86-286.14l-33.86-33.86-128 128z" />
<glyph unicode="&#xe699;" d="M125.59 896v-1024h768v1024h-768zM765.59 0h-512v320h512v-320zM765.59 448h-512v320h512v-320zM573.59 640l64 64h-256l64-64zM573.59 192l64 64h-256l64-64z" />
<glyph unicode="&#xe69a;" d="M768 384h192l-192 191.89zM704 320v256h-256v-704h512v448h-192zM767.89 640h0.11v256h-768v-896h384v640h383.89zM192 768v64h384v-64h-384z" />
<glyph unicode="&#xe69b;" d="M304 832h416v-64h-416v64zM304 704h416v-64h-416v64zM304 576h416v-64h-416v64zM304 448h416v-64h-416v64zM304 320h416v-64h-416v64zM304 192h416v-64h-416v64zM304 64h336v-64h-336v64zM784.030 831.98h176v-896h-176v896zM64 832h176v-64h-176v64zM64 704h176v-64h-176v64zM64 576h176v-64h-176v64z" />
<glyph unicode="&#xe69c;" d="M896 640l-256.020 256h-511.98v-1024h768v768zM805.49 640h-165.49l-0.010 165.5 165.5-165.5zM832-64h-640v896h383.99l0.010-256h256v-640z" />
<glyph unicode="&#xe69d;" d="M896 640l-256 256 0.020-256zM576.020 576l-0.020 320h-448v-1024h768v704h-319.98zM624 80l-48 48 64 64h-384v64h384l-64 64 48 48 144-144-144-144z" />
<glyph unicode="&#xe69e;" d="M576 576l-0.020 320h-255.98v-832h576v512zM896 640l-256.020 256 0.020-256zM256 0v768h-128v-896h640v128h-448z" />
<glyph unicode="&#xe69f;" d="M896 640l-256 256 0.020-256zM576.020 576l-0.020 320h-448v-1024h768v704z" />
<glyph unicode="&#xe6a0;" d="M128 832v-256h768v256h-768zM256 640c-35.35 0-64 28.65-64 64s28.65 64 64 64 64-28.65 64-64-28.65-64-64-64zM128 256h768v256h-768v-256zM256 448c35.35 0 64-28.65 64-64s-28.65-64-64-64-64 28.65-64 64 28.65 64 64 64zM128-64h768v256h-768v-256zM256 128c35.35 0 64-28.65 64-64s-28.65-64-64-64-64 28.65-64 64 28.65 64 64 64z" />
<glyph unicode="&#xe6a1;" d="M64 832h128v-896h-128v896zM832 832h128v-896h-128v896zM256 832h512v-896h-512v896z" />
<glyph unicode="&#xe6a2;" d="M0 0l192-128h640l192 128zM704 64l64 64v48l192 192v208h-192v64h-576v-512l64-64h448zM896 512v-128l-128-128v256h128z" />
<glyph unicode="&#xe6a3;" d="M896 640l-256.020 256 0.020-256zM896 576h-320l-0.020 320h-447.98v-448h767.98zM448 256h128v-192h-128v192zM0 384v-448h1024v448h-1024zM320 128h-64v-64h-128v-64h-64v320h192v-64h64v-128zM640 64h-64v-64h-192v320h192v-64h64v-192zM960 256h-192v-64h128v-64h-128v-128h-64v320h256v-64zM128 256h128v-128h-128v128z" />
<glyph unicode="&#xe6a4;" d="M874.040 746.040c-199.95 199.95-524.13 199.95-724.080 0s-199.95-524.13 0-724.080 524.13-199.95 724.080 0 199.95 524.13 0 724.080zM208 80l180.8 395.15 77.94-136.4 140.92-75.88-399.66-182.87zM633.13 288.34l-75.88 140.92-136.4 77.94 395.15 180.8-182.87-399.66z" />
<glyph unicode="&#xe6a5;" d="M640 384c0-70.692-57.308-128-128-128s-128 57.308-128 128c0 70.692 57.308 128 128 128s128-57.308 128-128zM64 832v-896h896v896h-896zM896 336l-119.33-14.92c-6.77-28.59-18.050-55.42-33.050-79.73l73.85-94.95-67.88-67.88-94.95 73.85c-24.3-15-51.14-26.28-79.73-33.050l-14.91-119.32h-96l-14.92 119.33c-28.59 6.77-55.42 18.050-79.73 33.050l-94.95-73.85-67.88 67.88 73.85 94.95c-15 24.3-26.28 51.14-33.050 79.73l-119.32 14.91v96l119.33 14.92c6.77 28.59 18.050 55.42 33.050 79.73l-73.85 94.95 67.88 67.88 94.95-73.85c24.3 15 51.14 26.28 79.73 33.050l14.91 119.32h96l14.92-119.33c28.59-6.77 55.42-18.050 79.73-33.050l94.95 73.85 67.88-67.88-73.85-94.95c15-24.3 26.28-51.14 33.050-79.73l119.32-14.91v-96z" />
<glyph unicode="&#xe6a6;" d="M616.28 385.99l45.87 80.28-67.88 67.88-80.28-45.87c-22.75 13.4-47.48 23.78-73.68 30.56l-24.31 89.16h-96l-24.32-89.16c-26.19-6.77-50.93-17.15-73.68-30.56l-80.28 45.87-67.88-67.88 45.87-80.28c-13.4-22.75-23.78-47.48-30.56-73.68l-89.15-24.31v-96l89.16-24.32c6.77-26.19 17.15-50.93 30.56-73.68l-45.87-80.28 67.88-67.88 80.28 45.87c22.75-13.4 47.48-23.78 73.68-30.56l24.31-89.15h96l24.32 89.16c26.19 6.77 50.93 17.15 73.68 30.56l80.28-45.87 67.88 67.88-45.87 80.28c13.4 22.75 23.78 47.48 30.56 73.68l89.15 24.31v96l-89.16 24.32c-6.77 26.19-17.15 50.93-30.56 73.67zM368 96c-79.53 0-144 64.47-144 144s64.47 144 144 144 144-64.47 144-144-64.47-144-144-144zM958.56 632.11c0.95 7.66 1.44 15.63 1.44 23.89 0 19.77-3.6 38.7-10.15 56.19l50.71 58.6-63.57 70.6-63.25-43.36c-22.060 11.47-47.14 17.97-73.74 17.97-2.050 0-4.090-0.050-6.12-0.13l-39.16 64.85-86.79-38.64 20.94-70.99c-20.56-19.85-35.8-45.16-43.42-73.59l-71.26-16.62 9.93-94.48 78.34-2.14c13.4-19.31 32-35.22 53.64-47.14l-7.65-89.68 92.92-19.75 30.18 84.91c26.090 2.040 48.92 9.28 67.81 21.030l72.6-30.63 47.5 82.27-60.9 46.84zM800 592c-35.35 0-64 28.65-64 64s28.65 64 64 64 64-28.65 64-64-28.65-64-64-64z" />
<glyph unicode="&#xe6a7;" d="M1024 317.39v132.22l-138.010 21.84c-9.61 41.24-25.86 79.93-47.56 114.88l82.71 112.61-93.49 93.49-113.060-82.16c-34.93 21.73-73.61 38.010-114.84 47.65l-21.14 138.080h-132.22l-21.84-138.010c-41.24-9.61-79.93-25.86-114.88-47.56l-112.61 82.71-93.49-93.49 82.16-113.060c-21.73-34.93-38.010-73.61-47.65-114.84l-138.080-21.14v-132.22l138.010-21.84c9.61-41.24 25.86-79.93 47.56-114.88l-82.71-112.61 93.49-93.49 113.060 82.16c34.93-21.73 73.61-38.010 114.84-47.65l21.14-138.080h132.22l21.84 138.010c41.24 9.61 79.93 25.86 114.88 47.56l112.61-82.71 93.49 93.49-82.16 113.060c21.73 34.93 38.010 73.61 47.65 114.84l138.080 21.14zM512 192c-106.040 0-192 85.96-192 192s85.96 192 192 192 192-85.96 192-192-85.96-192-192-192z" />
<glyph unicode="&#xe6a8;" d="M512 896c-282.77 0-512-229.23-512-512s229.23-512 512-512 512 229.23 512 512-229.23 512-512 512zM832 336h-368v496h96v-400h272v-96z" />
<glyph unicode="&#xe6a9;" d="M128 896v-1024h768v1024h-768zM320 832h384v-64h-384v64zM831.19-64h-640v768h640v-768zM256 352h128v-128h-128v128zM256 160h128v-128h-128v128zM256 544h128v-128h-128v128zM448 512h320v-64h-320v64zM448 320h320v-64h-320v64zM448 128h320v-64h-320v64z" />
<glyph unicode="&#xe6aa;" d="M128 896v-1024h768v1024h-768zM320 832h384v-64h-384v64zM832-64h-640v768h640v-768zM256 352h128v-128h-128v128zM256 160h128v-128h-128v128zM448 512h320v-64h-320v64zM448 320h320v-64h-320v64zM448 128h320v-64h-320v64zM416 528l-48 48-64-64-32 32-48-48 80-80z" />
<glyph unicode="&#xe6ab;" d="M64 832v-896h896v896h-896zM512 128c-141.38 0-256 114.62-256 256s114.62 256 256 256 256-114.62 256-256-114.62-256-256-256z" />
<glyph unicode="&#xe6ac;" d="M1024 384c0-282.77-229.23-512-512-512s-512 229.23-512 512c0 282.77 229.23 512 512 512s512-229.23 512-512z" />
<glyph unicode="&#xe6ad;" d="M896 768v-768h-768v768h768zM1024 896h-1024v-1024h1024v1024z" />
<glyph unicode="&#xe6ae;" d="M512 896c-282.77 0-512-229.23-512-512s229.23-512 512-512 512 229.23 512 512-229.23 512-512 512zM512 32l-288 288 80 80 144-144v448h128v-448l144 144 80-80-288-288z" />
<glyph unicode="&#xe6af;" d="M512 896c-282.77 0-512-229.23-512-512s229.23-512 512-512 512 229.23 512 512-229.23 512-512 512zM832 320h-448l144-144-80-80-288 288 288 288 80-80-144-144h448v-128z" />
<glyph unicode="&#xe6b0;" d="M448.95 143.54l-224 224 80 80 144-144 272 272 80-80z" />
<glyph unicode="&#xe6b1;" d="M512 896c-282.77 0-512-229.23-512-512s229.23-512 512-512 512 229.23 512 512-229.23 512-512 512zM576 96l-80 80 144 144h-448v128h448l-144 144 80 80 288-288-288-288z" />
<glyph unicode="&#xe6b2;" d="M528 704l-512-512h1024z" />
<glyph unicode="&#xe6b3;" d="M1024 768v-896h-896z" />
<glyph unicode="&#xe6b4;" d="M832 384l-512 512v-1024z" />
<glyph unicode="&#xe6b5;" d="M192 384l512-512v1024z" />
<glyph unicode="&#xe6b6;" d="M512 64l512 512h-1024z" />
<glyph unicode="&#xe6b7;" d="M896 704l-128 128h-256l-128-128h-384v-704h1024v704h-128zM160 480c-35.35 0-64 28.65-64 64s28.65 64 64 64 64-28.65 64-64-28.65-64-64-64zM640 64c-176.73 0-320 143.27-320 320s143.27 320 320 320c176.73 0 320-143.27 320-320s-143.27-320-320-320zM864 384c0-123.712-100.288-224-224-224s-224 100.288-224 224c0 123.712 100.288 224 224 224s224-100.288 224-224z" />
<glyph unicode="&#xe6b8;" d="M64-64h896v576h-896v-576zM464 448h112v-432h-128v272l-64 16 80 144zM832 768v128h-192v-128h-256v128h-192v-128h-128v-192h896v192h-128zM256 832h64v-128h-64v128zM704 832h64v-128h-64v128z" />
<glyph unicode="&#xe6b9;" d="M64-64h896v576h-896v-576zM448 64v128h128v-128h-128zM448 256v128h128v-128h-128zM256 384h128v-128h-128v128zM256 192h128v-128h-128v128zM768 64h-128v128h128v-128zM768 256h-128v128h128v-128zM832 768v128h-192v-128h-256v128h-192v-128h-128v-192h896v192h-128zM256 832h64v-128h-64v128zM704 832h64v-128h-64v128z" />
<glyph unicode="&#xe6ba;" d="M512 896c-282.77 0-512-229.23-512-512s229.23-512 512-512 512 229.23 512 512-229.23 512-512 512zM806.16 89.84c-38.24-38.24-82.73-68.24-132.26-89.19-51.23-21.66-105.7-32.65-161.9-32.65s-110.67 10.99-161.9 32.65c-49.53 20.95-94.020 50.96-132.26 89.19-38.24 38.24-68.24 82.73-89.19 132.26-21.66 51.23-32.65 105.7-32.65 161.9s10.99 110.67 32.65 161.9c20.95 49.53 50.96 94.020 89.19 132.26 38.24 38.24 82.73 68.24 132.26 89.19 51.23 21.66 105.7 32.65 161.9 32.65s110.67-10.99 161.9-32.65c49.53-20.95 94.020-50.96 132.26-89.19 38.24-38.24 68.24-82.73 89.19-132.26 21.66-51.23 32.65-105.7 32.65-161.9s-10.99-110.67-32.65-161.9c-20.95-49.52-50.96-94.020-89.19-132.26zM512 704c-176.73 0-320-143.27-320-320s143.27-320 320-320 320 143.27 320 320-143.27 320-320 320zM670.39 225.61c-42.31-42.31-98.56-65.61-158.39-65.61s-116.080 23.3-158.39 65.61c-42.31 42.31-65.61 98.56-65.61 158.39s23.3 116.080 65.61 158.39c42.31 42.31 98.56 65.61 158.39 65.61s116.080-23.3 158.39-65.61c42.31-42.31 65.61-98.56 65.61-158.39s-23.3-116.080-65.61-158.39zM640 384c0-70.692-57.308-128-128-128s-128 57.308-128 128c0 70.692 57.308 128 128 128s128-57.308 128-128z" />
<glyph unicode="&#xe6bb;" d="M448 704h-384v-768h768v384h-384zM576 832h384v-384h-384v384z" />
<glyph unicode="&#xe6bc;" d="M832-64v960h-640v-960h-128v-64h896v64h-128zM640 768h128v-64h-128v64zM640 640h128v-64h-128v64zM640 512h128v-64h-128v64zM640 384h128v-64h-128v64zM640 256h128v-64h-128v64zM448 768h128v-64h-128v64zM448 640h128v-64h-128v64zM448 512h128v-64h-128v64zM448 384h128v-64h-128v64zM448 256h128v-64h-128v64zM256 768h128v-64h-128v64zM256 640h128v-64h-128v64zM256 512h128v-64h-128v64zM256 384h128v-64h-128v64zM256 256h128v-64h-128v64zM448 128h128v-192h-128v192z" />
<glyph unicode="&#xe6bd;" d="M151.82 364.45l-145.46-45.93 19.28-61.030 150.020 47.37zM193.020 531.050l-65.020 59.11v113.84h-64v-142.16l106.89-97.17zM512 576l236.31 59.080-44.31 132.92-192 64-192-64-44.31-132.92zM853.11 464.67l106.89 97.17v142.16h-64v-113.84l-65.020-59.11zM224.56 182.59l-96.56-106.22v-140.37h64v115.63l58.99 64.89zM872.18 364.45l-23.84-59.59 150.020-47.37 19.28 61.030zM773.010 116.52l58.99-64.89v-115.63h64v140.37l-96.56 106.22zM832 384l-64 192-256-64-256 64-64-192 128-320 137.070-45.69 22.93 45.69v384l64-64v-320l22.76-45.75 137.24 45.75z" />
<glyph unicode="&#xe6be;" d="M224 448c0 52.93 43.070 96 96 96s96-43.070 96-96v-32.89h64v32.89c0 88.22-71.78 160-160 160s-160-71.78-160-160v-32.89h64v32.89zM64 384v-128h64l61.69-320h258.31l64 320h64v128zM960 512v320h-320v-320l128-64v-383h-64v-129h193v129h-65v383z" />
<glyph unicode="&#xe6bf;" d="M512 896c-282.77 0-512-229.23-512-512s229.23-512 512-512 512 229.23 512 512-229.23 512-512 512zM720 368l-144 144v-448h-128v448l-144-144-80 80 288 288 288-288-80-80z" />
<glyph unicode="&#xe6c0;" d="M64 128h896v-128h-896v128zM960 704l-80 80-368-368-368 368-80-80 448-448z" />
<glyph unicode="&#xe6c1;" d="M1024 448h-256v-194.29h-320v-189.71h304l144-128v128h128zM384 320h320v512h-704v-512h160v-192z" />
<glyph unicode="&#xe6c2;" d="M361.14 400h96l13.72 96h-96zM1024 768h-1024v-640h256v-256l320 256h448v640zM640 496h-105.14l-13.71-96h102.85l-16-64h-96l-16-112h-64l16 112h-96l-16-112h-64l16 112h-112l16 64h105.14l13.71 96h-102.85l16 64h96l16 112h64l-16-112h96l16 112h64l-16-112h112l-16-64zM784 224c-26.51 0-48 21.49-48 48s21.49 48 48 48c26.51 0 48-21.49 48-48s-21.49-48-48-48zM816 352h-64l-16 320h96l-16-320z" />
<glyph unicode="&#xe6c3;" d="M0 768v-640h258.55v-256l320 256h445.45v640z" />
<glyph unicode="&#xe6c4;" d="M512 640h-64l-64-64-256 320h-63l-65-64v-64.16l320-255.84-64-64v-64l64-64 256 256zM1024 192l-384 320-256-256 320-384 74.67 74.67-106.67 213.33 160-160 53.33 53.33-101.33 202.67 152-152z" />
<glyph unicode="&#xe6c5;" d="M960 752l-80 77.35-153.1-150.8c-102.17 88.62-165.36 82.22-278.9 25.45 64-64 320-320 384-384 56.74 113.47 63.16 176.66-25.29 278.71l153.29 153.29zM0 512c0-35.93 30.22-102.040 85.060-181.47l234.94 117.47-184.87-184.87c18.11-22.81 37.86-46.25 59.16-69.99l253.71 126.86-192-192c22.1-22.11 44.5-43 66.84-62.58l253.16 126.58-183.69-183.69c112.96-86.94 213.27-136.31 247.69-136.31 48 0 160 368 160 368l-432 432c0 0-368-96-368-160z" />
<glyph unicode="&#xe6c6;" d="M704 704v128h-384v-128h-320v-64l320-256h384l320 256v64h-320zM384 704v64h256v-64h-256zM448 320h128v-64h-128v64zM640 320v-128h-256v128h-112l-272 224v-544h1024v544l-272-224z" />
<glyph unicode="&#xe6c7;" d="M64 832v-896h896v896h-896zM745.81 503.83c0.23-5.17 0.35-10.38 0.35-15.61 0-159.41-121.34-343.23-343.23-343.23-68.13 0-131.54 19.97-184.92 54.2 9.44-1.11 19.040-1.68 28.78-1.68 56.52 0 108.53 19.29 149.82 51.64-52.79 0.97-97.34 35.85-112.69 83.78 7.37-1.41 14.92-2.16 22.7-2.16 11 0 21.66 1.47 31.78 4.23-55.19 11.080-96.77 59.84-96.77 118.29 0 0.51 0 1.010 0.010 1.52 16.27-9.040 34.87-14.46 54.64-15.090-32.37 21.63-53.67 58.56-53.67 100.41 0 22.11 5.95 42.83 16.33 60.65 59.5-72.99 148.39-121.010 248.65-126.040-2.060 8.83-3.12 18.040-3.12 27.49 0 66.62 54.010 120.63 120.64 120.63 34.7 0 66.050-14.65 88.050-38.1 27.48 5.41 53.3 15.45 76.6 29.27-9.010-28.17-28.13-51.81-53.040-66.74 24.4 2.92 47.65 9.4 69.29 19-16.18-24.2-36.64-45.45-60.2-62.46z" />
<glyph unicode="&#xe6c8;" d="M528.040 292.79c-3.61 0.47-12.84 0-27.69-1.38-14.64-2.080-29.61-5.42-44.91-10.040-3.61-1.39-8.67-3.46-15.2-6.24-6.53-3-13.17-7.27-19.92-12.81-6.53-5.77-12.040-12.93-16.55-21.47-5.18-9.010-7.77-19.85-7.77-32.56 0-24.93 11.25-45.48 33.77-61.65 21.39-16.16 50.65-24.47 87.8-24.94 33.32 0.46 58.76 7.85 76.32 22.17 17.11 14.090 25.67 32.22 25.67 54.38 0 18.010-5.86 33.71-17.56 47.1-12.38 12.71-31.74 28.29-58.080 46.76-4.51 0.45-9.8 0.68-15.88 0.68zM532.79 596.14c-11.14 8.090-23.95 12.38-38.44 12.84-19.16-0.47-35.1-8.22-47.79-23.25-10.71-15.73-15.84-33.31-15.37-52.74 0-25.68 7.48-52.4 22.45-80.16 7.24-12.96 16.6-23.94 28.050-32.96 11.46-9.030 24.55-13.53 39.28-13.53 18.61 0.69 34.12 7.4 46.53 20.13 5.98 9.020 9.83 18.27 11.54 27.76 1.020 9.48 1.54 17.46 1.54 23.94 0 27.99-7.13 56.21-21.39 84.67-6.68 13.64-15.48 24.74-26.4 33.3zM64 832v-896h896v896h-896zM607.23 594.78c5.32-5.54 10.55-12.35 15.65-20.43 4.88-7.62 9.21-16.62 12.99-27.010 3.11-10.39 4.66-22.51 4.66-36.36-0.42-25.4-6-45.71-16.75-60.94-5.27-7.39-10.85-14.2-16.75-20.43-6.53-6.23-13.48-12.58-20.85-19.050-4.21-4.39-8.11-9.35-11.69-14.89-4.21-5.77-6.32-12.47-6.32-20.090 0-7.39 2.16-13.5 6.48-18.35 3.67-4.62 7.24-8.66 10.7-12.12l23.98-19.74c14.91-12.24 27.98-25.74 39.22-40.51 10.59-15.010 16.1-34.63 16.53-58.87 0-34.39-15.13-64.87-45.38-91.42-31.37-27.47-76.64-41.67-135.8-42.6-49.52 0.47-86.5 11.060-110.92 31.8-24.65 19.36-36.98 42.52-36.98 69.48 0 13.14 4.010 27.77 12.030 43.9 7.78 16.13 21.87 30.31 42.26 42.51 22.9 13.14 46.96 21.89 72.16 26.27 24.96 3.69 45.69 5.76 62.19 6.22-5.1 6.73-9.64 13.93-13.63 21.59-4.66 7.42-6.98 16.36-6.98 26.81 0 6.26 0.88 11.49 2.66 15.67 1.55 4.41 2.99 8.47 4.32 12.18-8.040-0.92-15.61-1.38-22.72-1.38-37.64 0.46-66.33 12.35-86.060 35.66-20.66 21.7-30.98 46.97-30.98 75.82 0 34.86 14.63 66.48 43.9 94.87 20.1 16.61 40.99 27.46 62.65 32.55 21.45 4.38 41.55 6.58 60.32 6.58h141.4l-43.67-25.59h-43.6c4.43-2.78 9.43-6.82 14.98-12.13z" />
<glyph unicode="&#xe6c9;" d="M910.55 832.010h-797.1c-27.32 0-49.45-22.14-49.45-49.46v-797.1c0-27.31 22.13-49.45 49.45-49.45h429.13v346.98h-116.76v135.23h116.77v99.72c0 115.73 70.68 178.75 173.92 178.75 49.45 0 91.95-3.68 104.34-5.33v-120.94l-71.61-0.030c-56.15 0-67.020-26.68-67.020-65.83v-86.33h133.91l-17.44-135.23h-116.47v-346.99h228.33c27.31 0 49.45 22.14 49.45 49.45v797.1c0 27.32-22.14 49.46-49.45 49.46z" />
<glyph unicode="&#xe6ca;" d="M64 832v-896h896v896h-896zM784.2 292.29l-371.47-221.29-147.99 103.92v545.3l147.99-45.050v-366.73l-147.99-133.52 358.53 189.89-98.83 44.73-64.92 141.85 324.68-100.17v-158.93z" />
<glyph unicode="&#xe6cb;" d="M260.97 720.3c4.54 10.65 12.17 19.46 21.28 26.48 9.92 7.64 21.58 12.46 33.41 16.28 5.54 1.79 11.27 3.020 16.94 4.32 0.38 0.070 3.7 0.46 3.7 0.7 0 0.28-0.010 0.57-0.010 0.85-0.040 3.75-0.070 7.51-0.11 11.26-0.12 12.55-0.24 25.11-0.36 37.66-0.040 4.17-0.080 8.34-0.12 12.51-0.010 0.56 0.27 1.59-0.35 1.72-5.45 1.19-11.070 1.92-16.64 2.3-10.76 0.73-21.51 0.71-32.22-0.55-12.41-1.46-24.72-4.33-36.41-8.75-23.020-8.71-43.78-22.94-59.68-41.8-15.87-18.83-26.54-41.5-31.61-65.56-1.32-6.25-2.26-12.59-2.8-18.95-0.37-4.18-0.47-8.38-0.69-12.57-0.65-12.73-0.95-25.48-0.96-38.22-0.020-26.44 1.74-52.79 3.79-79.13 0.54-6.98 1.090-13.95 1.61-20.93 0.25-3.4 0.5-6.8 0.74-10.2 0.12-1.7 0.91-16.070 0.83-18.040-0.26-6.42-1.18-12.81-2.61-19.070-2.64-11.64-7.24-22.89-13.32-33.15-11.86-20.020-30.34-36.74-53.65-41.48-9.090-1.85-18.49-1.64-27.72-1.95-0.1 0-0.030-76.58-0.030-77.050 0-0.14 2.15-0.13 2.34-0.14 10.52-0.35 21.020-0.3 31.21-3.31 22.64-6.69 39.91-24.67 50.69-45.11 5.15-9.77 8.97-20.26 11.13-31.1 1.15-5.79 1.9-11.7 2.010-17.6 0.030-1.52-0.7-14.010-0.82-15.71-0.22-3.27-0.46-6.54-0.7-9.81-0.49-6.58-1-13.16-1.51-19.74-1.030-13.18-2-26.36-2.78-39.55-1.55-26.24-1.64-52.63-0.3-78.88 0.2-3.86 0.29-7.73 0.57-11.59 0.46-6.37 1.3-12.7 2.52-18.97 2.4-12.27 6.21-24.23 11.49-35.57 10.25-21.98 25.94-41.17 45.55-55.46 20.24-14.75 44.27-23.83 69.050-27.080 10.77-1.41 21.6-1.6 32.43-0.93 5.63 0.35 11.41 0.9 16.93 2.080 0.38 0.080 1.91 0.080 1.91 0.6 0 0.36 0.010 0.72 0.010 1.080 0.1 10.25 0.19 20.49 0.29 30.74s0.19 20.49 0.29 30.74c0 0.36 0.010 0.72 0.010 1.080 0 0.52-1.54 0.45-1.9 0.51-5.57 0.94-11.14 2.38-16.55 3.96-11.91 3.48-23.69 8.34-33.81 15.62-9.35 6.72-17.31 15.45-22.22 25.93-5.27 11.25-6.68 23.38-6.11 35.68 1.21 26.25 2.58 52.51 3.33 78.78 0.76 26.4-2.18 80.63-2.18 80.42-0.57 7.3-1.23 14.53-2.55 21.75-2.22 12.15-5.66 24-10.15 35.51-9.070 23.22-23 44.56-40.75 62.070-8.73 8.61-18.49 16.29-29.060 22.51 21.57 12.71 39.34 31.1 53.020 51.93 13.55 20.62 22.62 44.29 27.010 68.54 1.28 7.1 2.86 25.76 3 27.46 0.27 3.26 0.51 6.53 0.73 9.8 0.44 6.56 0.78 13.14 1.010 19.71 0.46 13.22 0.39 26.44 0.060 39.67-0.65 26.34-2.050 52.67-3.24 79-0.3 6.64-0.64 13.23 0.090 19.85 0.7 6.42 2.32 12.89 4.94 18.85 3.41 7.99-1.75-3.98 0 0zM953.79 424.25c-4.96 0.16-9.99 0.12-14.93 0.74-5.74 0.72-11.36 1.97-16.79 4.010-10.7 4.010-20.24 10.65-28.21 18.81-16.71 17.090-27.41 40.52-30.25 64.18-0.49 4.060-0.86 8.22-0.64 12.3 0.070 1.4 1.25 19.2 1.49 22.47 0.49 6.58 1 13.16 1.51 19.74 1.030 13.18 2 26.36 2.78 39.55 1.55 26.24 1.64 52.63 0.3 78.88-0.2 3.86-0.29 7.73-0.57 11.59-0.46 6.37-1.3 12.7-2.52 18.97-2.4 12.27-6.21 24.23-11.49 35.57-10.25 21.98-25.94 41.17-45.55 55.46-20.24 14.75-44.27 23.83-69.050 27.080-10.77 1.41-21.6 1.6-32.43 0.93-5.63-0.35-11.41-0.9-16.93-2.080-0.38-0.080-1.91-0.080-1.91-0.6 0-0.36-0.010-0.72-0.010-1.080-0.1-10.25-0.19-20.49-0.29-30.74s-0.19-20.49-0.29-30.74c0-0.36-0.010-0.72-0.010-1.080 0-0.52 1.54-0.45 1.9-0.51 5.57-0.94 11.14-2.38 16.55-3.96 11.91-3.48 23.69-8.34 33.81-15.62 9.35-6.72 17.31-15.45 22.22-25.93 5.27-11.25 6.68-23.38 6.11-35.68-1.21-26.25-2.58-52.51-3.33-78.78-0.76-26.4 2.18-80.63 2.18-80.42 0.57-7.3 1.23-14.53 2.55-21.75 2.22-12.15 5.66-24 10.15-35.51 9.070-23.22 23-44.56 40.75-62.070 8.73-8.61 18.49-16.29 29.060-22.51-21.57-12.71-39.34-31.1-53.020-51.93-13.55-20.62-22.62-44.29-27.010-68.54-1.28-7.1-2.86-25.76-3-27.46-0.27-3.26-0.51-6.53-0.73-9.8-0.44-6.56-0.78-13.14-1.010-19.71-0.46-13.22-0.39-26.44-0.060-39.67 0.65-26.34 2.050-52.67 3.24-79 0.28-6.27 0.62-12.49 0.020-18.75-0.57-6.030-1.94-12.050-4.13-17.7-4.15-10.71-11.25-20-20.21-27.15-9.59-8.010-21.31-13.31-33.11-17.15-5.65-1.84-11.38-3.26-17.17-4.59-0.47-0.11-5.79-1.060-5.79-1.12 0-0.19 0-0.39 0.010-0.58 0.090-9.61 0.18-19.21 0.27-28.82 0.1-10.81 0.2-21.62 0.31-32.43 0.010-0.72 0.010-1.44 0.020-2.16 0-0.32 5.040-0.99 5.53-1.050 2.94-0.4 5.89-0.8 8.84-1.1 10.75-1.080 21.71-1.040 32.46 0.060 24.84 2.55 48.99 10.93 69.71 24.94 20.030 13.55 36.38 32.3 47.27 53.88 5.6 11.090 9.76 22.83 12.52 34.94 1.42 6.23 2.48 12.54 3.12 18.9 0.48 4.68 0.64 9.37 0.88 14.070 1.29 25.39 1.39 50.85 0.1 76.24-1.33 26.34-3.79 52.61-5.6 78.92-0.090 1.32-0.53 10.58-0.45 12.55 0.26 6.42 1.18 12.81 2.6 19.070 2.64 11.64 7.24 22.89 13.32 33.15 11.86 20.020 30.34 36.74 53.65 41.48 9.090 1.85 18.49 1.64 27.72 1.95 0.11 0 0.030 73.65 0.030 76.14 0 0.13 0.080 0.96-0.060 0.97-2.13 0.090-4.28 0.16-6.43 0.23-2.13 0.080 4.25-0.14 0 0z" />
<glyph unicode="&#xe6cc;" d="M0 68h384v384h-384v-384zM128 388h128v-64h-128v64zM448 644v-576h576v576h-576zM832 516h-192v64h192v-64z" />
<glyph unicode="&#xe6cd;" d="M960 512l-320 320-320-320 320-320 320 320zM464 544l144 144 48-48-144-144-48 48zM912 368l-205.16-205.16c0.56-0.23 1.13-0.45 1.68-0.69 20.96-8.87 39.78-21.55 55.93-37.7 10.89-10.89 20.2-23 27.83-36.17l199.72 199.72-80 80zM571.48 162.15c0.020 0.010 0.040 0.020 0.060 0.030l-395.54 397.82-160-160 80-80 79.55 79.55 310.57-314.070c7.92 14.25 17.76 27.31 29.42 38.97 16.16 16.15 34.97 28.83 55.94 37.7zM768 0c0-70.692-57.308-128-128-128s-128 57.308-128 128c0 70.692 57.308 128 128 128s128-57.308 128-128z" />
<glyph unicode="&#xe6ce;" d="M64 836v-896h896v896h-896zM704 580h-384v128h384v-128z" />
<glyph unicode="&#xe6cf;" d="M688 768c-80 0-128-48-128-128s0-704 0-704 9.65 0 16 0c0 80 48 128 128 128 150 0 320 0 320 0v704c0 0-186 0-336 0zM352 768c-150 0-352 0-352 0v-704c0 0 186 0 336 0 80 0 112-48 112-128 6.35 0 16 0 16 0s0 624 0 704-32 128-112 128z" />
<glyph unicode="&#xe6d0;" d="M704 832v64h-384v-64h-192v-128h768v128zM192 640h640v-768h-640v768z" />
<glyph unicode="&#xe6d1;" d="M512 896c-282.77 0-512-229.23-512-512s229.23-512 512-512 512 229.23 512 512-229.23 512-512 512zM512-1c-52.030 0-102.44 10.16-149.82 30.2-45.83 19.38-87.020 47.16-122.42 82.56s-63.18 76.59-82.56 122.42c-20.040 47.38-30.2 97.79-30.2 149.82s10.16 102.44 30.2 149.82c11.080 26.2 24.92 50.88 41.34 73.83l537.1-537.1c-22.95-16.42-47.63-30.26-73.83-41.34-47.37-20.050-97.78-30.21-149.81-30.21zM866.8 234.18c-11.080-26.2-24.92-50.88-41.34-73.83l-537.1 537.1c22.95 16.42 47.63 30.26 73.83 41.34 47.37 20.050 97.78 30.21 149.81 30.21s102.44-10.16 149.82-30.2c45.83-19.38 87.020-47.16 122.42-82.56s63.18-76.59 82.56-122.42c20.040-47.38 30.2-97.79 30.2-149.82s-10.16-102.44-30.2-149.82z" />
<glyph unicode="&#xe6d2;" d="M896 672l-384-64-384 64-64-160 128-448 320-160 320 160 128 448-64 160zM650.44 84.36l-138.44 62.6-138.44-62.6 16.76 151.010-102.32 112.32 148.8 30.73 75.2 132.010 75.2-132.020 148.8-30.72-102.32-112.32 16.76-151.010zM880 736l-48 112-320-48-336 48-32-112 368-64z" />
<glyph unicode="&#xe6d3;" d="M448 608v-352h128v352l112-112 80 80-256 256-256-256 80-80zM832 192v-64h-640v64h-128v-192h896v192z" />
<glyph unicode="&#xe6d4;" d="M576 96v576l112-112 80 80-256 256-256-256 80-80 112 112v-576l-112 112-80-80 256-256 256 256-80 80z" />
<glyph unicode="&#xe6d5;" d="M768 640l-80-80 112-112h-576l112 112-80 80-256-256 256-256 80 80-112 112h576l-112-112 80-80 256 256z" />
<glyph unicode="&#xe6d6;" d="M128 832h128v-896h-128v896zM912 752l-80 80-448-448 448-448 80 80-368 368z" />
<glyph unicode="&#xe6d7;" d="M800 608l-80-80 80-80h-224v224l80-80 80 80-224 224-224-224 80-80 80 80v-224h-224l80 80-80 80-224-224 224-224 80 80-80 80h224v-224l-80 80-80-80 224-224 224 224-80 80-80-80v224h224l-80-80 80-80 224 224z" />
<glyph unicode="&#xe6d8;" d="M64 832v-896h896v896h-896zM832 256h-128v224l-416-416-96 96 416 416h-224v128h448v-448z" />
<glyph unicode="&#xe6d9;" d="M736 640l-80-80 112-112h-352v-128h352l-112-112 80-80 256 256zM256 704h383.99v128h-511.99v-896h512v128h-384z" />
<glyph unicode="&#xe6da;" d="M704 672l-80-80 144-144h-704v-128h704l-144-144 80-80 288 288z" />
<glyph unicode="&#xe6db;" d="M1024 448h-352l112 112-80 80-256-256 256-256 80 80-112 112h352zM256 704h383.99v128h-511.99v-896h512v128h-384z" />
<glyph unicode="&#xe6dc;" d="M960 448h-704l144 144-80 80-288-288 288-288 80 80-144 144h704z" />
<glyph unicode="&#xe6dd;" d="M512 192l256 256-80 80-112-112v352h-128v-352l-112 112-80-80zM832 192v-64h-640v64h-128v-192h896v192z" />
<glyph unicode="&#xe6de;" d="M704 672l-80-80 208-208-208-208 80-80 288 288zM464 672l-80-80 144-144h-464v-128h464l-144-144 80-80 288 288z" />
<glyph unicode="&#xe6df;" d="M960 448h-464l144 144-80 80-288-288 288-288 80 80-144 144h464zM400 592l-80 80-288-288 288-288 80 80-208 208z" />
<glyph unicode="&#xe6e0;" d="M720 656l-80-80 128-128h-576v128h-128v-256h704l-128-128 80-80 272 272z" />
<glyph unicode="&#xe6e1;" d="M256 448l128 128-80 80-272-272 272-272 80 80-128 128h576v-128h128v256z" />
<glyph unicode="&#xe6e2;" d="M768 832h128v-896h-128v896zM112 752l368-368-368-368 80-80 448 448-448 448z" />
<glyph unicode="&#xe6e3;" d="M512 896c-282.75 0-512-229.23-512-512 0-209.65 126.070-389.75 306.47-468.94-1.44 35.75-0.26 78.67 8.91 117.57 9.84 41.57 65.88 278.98 65.88 278.98s-16.36 32.69-16.36 81.010c0 75.87 43.98 132.54 98.74 132.54 46.57 0 69.070-34.98 69.070-76.87 0-46.82-29.86-116.84-45.21-181.7-12.83-54.31 27.23-98.61 80.81-98.61 97.010 0 162.34 124.59 162.34 272.21 0 112.21-75.58 196.2-213.040 196.2-155.31 0-252.060-115.82-252.060-245.19 0-44.6 13.15-76.060 33.75-100.42 9.47-11.19 10.79-15.69 7.36-28.54-2.45-9.42-8.1-32.1-10.43-41.090-3.41-12.97-13.91-17.6-25.64-12.81-71.53 29.2-104.85 107.54-104.85 195.6 0 145.44 122.66 319.84 365.92 319.84 195.47 0 324.12-141.45 324.12-293.29 0-200.85-111.66-350.9-276.25-350.9-55.28 0-107.27 29.88-125.080 63.82 0 0-29.72-117.96-36.020-140.74-10.85-39.48-32.1-78.93-51.53-109.68 46.050-13.59 94.69-21 145.1-21 282.73 0 511.97 229.23 511.97 512 0 282.78-229.23 512.010-511.97 512.010z" />
<glyph unicode="&#xe6e4;" d="M64 832v-896h896v896h-896zM586.59 108.2l-106.65-50.19c-180.88 15.99-319.94 112.1-319.94 228.31 0 112.17 129.55 205.62 301.22 226.37v-67.74c-112.23-19.43-194.57-83.060-194.57-158.63 0-79.71 91.6-146.2 213.29-161.46v0 533.030l106.65 52.1v-601.79zM657.76 373.95l57.81 32.6c-30.8 17.84-68.47 31.17-110.27 38.41v67.71c72.9-8.81 138.21-30.7 189.22-61.61l54.76 30.87 14.72-152.85-206.24 44.87z" />
<glyph unicode="&#xe6e5;" d="M893.63 832h-763.49c-36.5 0-66.14-28.94-66.14-64.56v-766.79c0-35.68 29.64-64.65 66.14-64.65h763.49c36.54 0 66.37 28.97 66.37 64.65v766.79c0 35.62-29.83 64.56-66.37 64.56zM329.73 68.48h-132.95v427.58h132.95v-427.58zM263.27 554.53c-42.6 0-77.030 34.53-77.030 77.080 0 42.5 34.43 77.030 77.030 77.030 42.49 0 77.020-34.53 77.020-77.030-0.010-42.55-34.54-77.080-77.020-77.080zM827.46 68.48h-132.74v207.93c0 49.62-0.97 113.39-69.080 113.39-69.16 0-79.71-54.020-79.71-109.8v-211.52h-132.85v427.58h127.49v-58.4h1.81c17.74 33.61 61.1 69.060 125.76 69.060 134.47 0 159.31-88.54 159.31-203.71v-234.53z" />
<glyph unicode="&#xe6e6;" d="M446.48 292.79c-3.61 0.47-12.84 0-27.69-1.38-14.64-2.080-29.61-5.42-44.91-10.040-3.61-1.39-8.67-3.46-15.2-6.24-6.53-3-13.17-7.27-19.92-12.81-6.53-5.77-12.040-12.93-16.55-21.47-5.18-9.010-7.77-19.85-7.77-32.56 0-24.93 11.25-45.48 33.77-61.65 21.39-16.16 50.65-24.47 87.8-24.94 33.32 0.46 58.76 7.85 76.32 22.17 17.11 14.090 25.67 32.22 25.67 54.38 0 18.010-5.86 33.71-17.56 47.1-12.38 12.71-31.74 28.29-58.080 46.76-4.52 0.45-9.81 0.68-15.88 0.68zM64 832v-896h896v896h-896zM525.66 594.78c5.32-5.54 10.55-12.35 15.65-20.43 4.88-7.62 9.21-16.62 12.99-27.010 3.11-10.39 4.66-22.51 4.66-36.36-0.42-25.4-6-45.71-16.75-60.94-5.27-7.39-10.85-14.2-16.75-20.43-6.53-6.23-13.48-12.58-20.85-19.050-4.21-4.39-8.11-9.35-11.69-14.89-4.21-5.77-6.32-12.47-6.32-20.090 0-7.39 2.16-13.5 6.48-18.35 3.67-4.62 7.24-8.66 10.7-12.12l23.98-19.74c14.91-12.24 27.98-25.74 39.22-40.51 10.59-15.010 16.1-34.63 16.53-58.87 0-34.39-15.13-64.87-45.38-91.42-31.37-27.47-76.64-41.67-135.8-42.6-49.52 0.47-86.5 11.060-110.92 31.8-24.65 19.36-36.98 42.52-36.98 69.47 0 13.14 4.010 27.77 12.030 43.9 7.78 16.13 21.87 30.31 42.26 42.51 22.9 13.14 46.96 21.89 72.16 26.27 24.96 3.69 45.69 5.76 62.19 6.22-5.1 6.73-9.64 13.93-13.63 21.59-4.66 7.42-6.98 16.36-6.98 26.81 0 6.26 0.88 11.49 2.66 15.67 1.55 4.41 2.99 8.47 4.32 12.18-8.040-0.92-15.61-1.38-22.72-1.38-37.64 0.46-66.33 12.35-86.060 35.66-20.66 21.7-30.98 46.97-30.98 75.82 0 34.86 14.63 66.48 43.9 94.87 20.1 16.61 40.99 27.46 62.65 32.55 21.45 4.38 41.55 6.58 60.32 6.58h141.4l-43.67-25.59h-43.6c4.43-2.77 9.43-6.81 14.98-12.12zM820.34 367.68h-76.18v-74.36h-43.53v74.36h-74.36v43.53h74.36v76.18h43.53v-76.18h76.18v-43.53zM451.22 596.14c-11.14 8.090-23.95 12.38-38.44 12.84-19.16-0.47-35.1-8.22-47.79-23.25-10.71-15.73-15.84-33.31-15.37-52.74 0-25.68 7.48-52.4 22.45-80.16 7.24-12.96 16.6-23.94 28.050-32.96 11.46-9.030 24.55-13.53 39.28-13.53 18.61 0.69 34.12 7.4 46.53 20.13 5.98 9.020 9.83 18.27 11.54 27.76 1.020 9.48 1.54 17.46 1.54 23.94 0 27.99-7.13 56.21-21.39 84.67-6.68 13.64-15.48 24.74-26.4 33.3z" />
<glyph unicode="&#xe6e7;" d="M368 0l112-16 160 768-112 16zM752 656l-80-80 192-192-192-192 80-80 272 272zM272 656l-272-272 272-272 80 80-192 192 192 192z" />
<glyph unicode="&#xe6e8;" d="M64 832h176v-64h-176v64zM64 704h176v-64h-176v64zM64 576h176v-64h-176v64zM304 832h176v-896h-176v896zM544 832h176v-896h-176v896zM784 832h176v-896h-176v896z" />
<glyph unicode="&#xe6e9;" d="M64 832v-896h896v896h-896zM272 64c-44.18 0-80 35.82-80 80s35.82 80 80 80c44.18 0 80-35.82 80-80s-35.82-80-80-80zM488 64c0 163.21-132.79 296-296 296v112c55.060 0 108.49-10.79 158.83-32.090 48.59-20.55 92.22-49.96 129.67-87.41s66.86-81.080 87.42-129.67c21.29-50.34 32.080-103.78 32.080-158.83h-112zM712 64c0 286.73-233.27 520-520 520v112c85.29 0 168.070-16.72 246.020-49.69 75.26-31.83 142.85-77.4 200.87-135.42s103.59-125.61 135.42-200.87c32.97-77.95 49.69-160.73 49.69-246.020h-112z" />
<glyph unicode="&#xe6ea;" d="M288 464l-64-64-64 64-48-48 64-64-64-64 48-48 64 64 64-64 48 48-64 64 64 64zM288 784l-64-64-64 64-48-48 64-64-64-64 48-48 64 64 64-64 48 48-64 64 64 64zM288 144l-64-64-64 64-48-48 64-64-64-64 48-48 64 64 64-64 48 48-64 64 64 64zM448 64h448v-64h-448v64zM448 384h448v-64h-448v64zM448 704h448v-64h-448v64z" />
<glyph unicode="&#xe6eb;" d="M64 448h384v384h-384v-384zM128 768h256v-256h-256v256zM192 704h128v-128h-128v128zM576 832v-384h384v384h-384zM896 512h-256v256h256v-256zM704 704h128v-128h-128v128zM64-64h384v384h-384v-384zM128 256h256v-256h-256v256zM192 192h128v-128h-128v128zM704 256v64h-64v-128h64zM896 256v64h-64v-128h64zM768 0h-128v-64h256v64h-64zM640 128h-64v-128h64v64zM896 64v-64h64v128h-64z" />
<glyph unicode="&#xe6ec;" d="M320 384v192c0 105.87 86.13 192 192 192s192-86.13 192-192h128c0 43.17-8.47 85.090-25.17 124.58-16.12 38.11-39.18 72.33-68.55 101.7s-63.58 52.43-101.7 68.55c-39.49 16.7-81.41 25.17-124.58 25.17s-85.090-8.47-124.58-25.17c-38.11-16.12-72.33-39.19-101.7-68.55-29.37-29.37-52.43-63.58-68.55-101.7-16.7-39.49-25.17-81.41-25.17-124.58v-192h-128v-512h896v512h-640zM512 0c-70.69 0-128 57.31-128 128s57.31 128 128 128 128-57.31 128-128-57.31-128-128-128z" />
<glyph unicode="&#xe6ed;" d="M760.8 235.49c0 138.35-104.5 186.71-197.68 225.34-92.38 38.29-144.080 45.5-144.080 102.25 0 31.080 28.57 65.38 108.67 65.38 84.7 0 148.77-41.4 148.77-41.4l62.1 82.79c0 0-60.11 57.23-162.57 75.77v86.38h-128.010v-87.99c-103.22-24.7-165.39-107.86-165.39-190.22 0-126.61 84.39-175.79 201.97-217.79 85.74-30.63 135.38-51 135.38-109.62 0-58.63-57.96-86.32-107.96-86.32-109.95 0-190.11 73.85-190.11 73.85l-73.62-83.57c0 0 68.15-89.16 199.73-112.59v-81.75h128v81.47c98.62 17.17 184.8 78.3 184.8 218.020z" />
<glyph unicode="&#xe6ee;" d="M64 768h896v-128h-896v128zM512 512l-448-448 80-80 368 368 368-368 80 80z" />
<glyph unicode="&#xe6ef;" d="M320 208c0-38.46 14.98-74.63 42.18-101.82 27.19-27.2 63.36-42.18 101.82-42.18 27.56 0 53.94 7.69 76.69 22.060l-198.63 198.63c-14.37-22.75-22.060-49.13-22.060-76.69zM464 352c-27.56 0-53.94-7.69-76.69-22.060l198.63-198.63c14.37 22.75 22.060 49.13 22.060 76.69 0 38.46-14.98 74.63-42.18 101.82-27.19 27.2-63.36 42.18-101.82 42.18zM640 640h256l-256.020 256zM576 576l-0.020 320h-447.98v-1024h768v704h-320zM464 0c-114.88 0-208 93.12-208 208s93.12 208 208 208c114.88 0 208-93.12 208-208s-93.12-208-208-208z" />
<glyph unicode="&#xe6f0;" d="M0 896h1024v-1024h-1024v1024z" />
<glyph unicode="&#xe6f1;" d="M256 768h512v-768h-512v768zM832 640h192v-509.67h-192v509.67zM0 640h192v-509.67h-192v509.67z" />
<glyph unicode="&#xe6f2;" d="M0 768v-640h256v-256l320 256h448v640h-1024zM704 320l-64-64-128 128-128-128-64 64 128 128-128 128 64 64 128-128 128 128 64-64-128-128 128-128z" />
<glyph unicode="&#xe6f3;" d="M960 704v-512h-406.45l-233.55-186.84v186.84h-256v512h896zM1024 768h-1024v-640h256v-256l320 256h448v640z" />
<glyph unicode="&#xe6f4;" d="M224 576h576l-80-80 80-80 224 224-224 224-80-80 80-80h-704v-256h128zM800 192h-576l80 80-80 80-224-224 224-224 80 80-80 80h704v256h-128z" />
<glyph unicode="&#xe6f5;" d="M338.36 703.98l89.1-490.030 596.54 106.050v383.85zM732.020-64c-7.97 20.4-12.020 41.9-12.020 64s4.040 43.6 12.020 64h-248.040c7.97-20.4 12.020-41.9 12.020-64s-4.040-43.6-12.020-64h248.040zM251.48 162.15c21.73 9.19 44.78 13.85 68.52 13.85 11.39 0 22.63-1.080 33.63-3.22l-108.22 595.22h-245.41v-128h138.59l89.11-490.12c7.57 4.67 15.51 8.77 23.78 12.27zM448 0c0-70.692-57.308-128-128-128s-128 57.308-128 128c0 70.692 57.308 128 128 128s128-57.308 128-128zM1024 0c0-70.692-57.308-128-128-128s-128 57.308-128 128c0 70.692 57.308 128 128 128s128-57.308 128-128z" />
<glyph unicode="&#xe6f6;" d="M0-112v-16h144l64 64-80 80zM768 832l-544-544v-128l-64-64 128-128 64 64h128l544 544z" />
<glyph unicode="&#xe6f7;" d="M880.66 513.49c-34.050-30.76-79.16-49.49-128.66-49.49-106.040 0-192 85.96-192 192 0 35.030 9.39 67.86 25.77 96.13-78.090 2.99-141.82 61.94-152.26 137.89-245.51-37.77-433.51-249.94-433.51-506.020 0-282.77 229.23-512 512-512 277.69 0 503.74 221.070 511.77 496.81-75.98 7.66-136.26 68.47-143.11 144.68zM248.67 247.45c-43.050-9.94-86.010 16.9-95.95 59.95s16.9 86.010 59.95 95.95c43.050 9.94 86.010-16.9 95.95-59.95s-16.9-86.010-59.95-95.95zM294.39 595.85c-22.76 37.87-10.5 87.020 27.37 109.78s87.020 10.5 109.78-27.37 10.5-87.020-27.37-109.78c-37.87-22.76-87.020-10.5-109.78 27.37zM565.89 96.31c-3.85-44.010-42.65-76.57-86.67-72.72-44.010 3.85-76.57 42.65-72.72 86.67s42.65 76.57 86.67 72.72c44.010-3.85 76.57-42.66 72.72-86.67zM850.040 246.4c-17.26-40.67-64.23-59.65-104.9-42.38-40.67 17.26-59.65 64.23-42.38 104.9 17.26 40.67 64.23 59.65 104.9 42.38s59.64-64.23 42.38-104.9z" />
<glyph unicode="&#xe6f8;" d="M128 768h192v-192h-192v192zM128 128h192v-192h-192v192zM448 64h448v-64h-448v64zM448 384h448v-64h-448v64zM448 704h448v-64h-448v64zM128 448h192v-192h-192v192z" />
<glyph unicode="&#xe6f9;" d="M814.13 671.74l-92.26-63.48 154.17-224.060-154.2-224.49 92.32-63.42 197.8 287.96zM19.21 606.38l166.79-222.18-166.81-222.62 89.62-67.16 217.19 289.84-217.21 289.36zM320 0c0-35.346-28.654-64-64-64s-64 28.654-64 64c0 35.346 28.654 64 64 64s64-28.654 64-64zM512 0c0-35.346-28.654-64-64-64s-64 28.654-64 64c0 35.346 28.654 64 64 64s64-28.654 64-64zM704 0c0-35.346-28.654-64-64-64s-64 28.654-64 64c0 35.346 28.654 64 64 64s64-28.654 64-64z" />
<glyph unicode="&#xe6fa;" d="M549.39 512.62l-530.64-530.64 90.5-90.51 533.65 533.64-23.81 61.78zM915.31 664.95l44.72 167.78-167.13-47.11-145.75 94.38-6.85-173.51-134.8-109.45 162.9-60.13 62.45-162.020 107.52 136.35 173.39 9.31z" />
<glyph unicode="&#xe6fb;" d="M768 768.72h256v-128h-256v128zM448 768.72h256v-128h-256v128zM384 768.72h-384v-768h1024v576h-640z" />
<glyph unicode="&#xe6fc;" d="M64 576h256v-64h-256v64zM64 448h256v-64h-256v64zM64 320h256v-64h-256v64zM384 576h576v-640h-576v640zM64 832h192v-192h-192v192z" />
<glyph unicode="&#xe6fd;" d="M192 640.72h640v-64h-640v64zM192 512.72h640v-64h-640v64zM192 384.72h640v-64h-640v64zM192 256.72h640v-64h-640v64zM192 128.72h640v-64h-640v64zM64 768.72v-832h896v832h-896zM896 0.72h-768v704h768v-704z" />
<glyph unicode="&#xe6fe;" d="M880 464.72l-48-48 96-96-96-96 48-48 144 144zM144 464.72l-144-144 144-144 48 48-96 96 96 96zM575.98 768.72l0.020-192h192l-192 192zM511.98 768.72h-255.98v-768h512v512h-256z" />
<glyph unicode="&#xe6ff;" d="M0 768.72v-768h1024v768h-1024zM768 704.72h64v-64h-64v64zM640 704.72h64v-64h-64v64zM960 64.72h-896v512h896v-512zM960 640.72h-64v64h64v-64z" />
<glyph unicode="&#xe700;" d="M0 768.72h1024v-192h-1024v192zM64 128.72h-64v-128h128v64h-64zM0 320.72h64v-128h-64v128zM0 512.72h64v-128h-64v128zM960 64.72h-64v-64h128v128h-64zM960 320.72h64v-128h-64v128zM960 512.72h64v-128h-64v128zM704 64.72h128v-64h-128v64zM448 64.72h128v-64h-128v64zM192 64.72h128v-64h-128v64z" />
<glyph unicode="&#xe701;" d="M906.22 433.84c3.77 15.010 5.78 30.71 5.78 46.88 0 106.040-85.96 192-192 192-64.49 0-121.54-31.79-156.36-80.56-58.7 68.87-146.060 112.56-243.64 112.56-176.73 0-320-143.27-320-320s143.27-320 320-320h512c106.040 0 192 85.96 192 192 0 79.73-48.59 148.1-117.78 177.12z" />
<glyph unicode="&#xe702;" d="M752 496l-80 80-224-224-96 96-80-80 176-176zM64 831.6v-895.6l896 0.4v895.6l-896-0.4zM832 64.35l-640-0.29v639.6l640 0.29v-639.6z" />
<glyph unicode="&#xe703;" d="M768 384.72l-80-80 112-112h-416c-105.87 0-192 86.13-192 192s86.13 192 192 192h576v128h-576c-43.17 0-85.090-8.47-124.58-25.17-38.11-16.12-72.33-39.18-101.7-68.55s-52.43-63.58-68.55-101.7c-16.7-39.49-25.17-81.41-25.17-124.58s8.47-85.090 25.17-124.58c16.12-38.11 39.18-72.33 68.55-101.7s63.58-52.43 101.7-68.55c39.49-16.7 81.41-25.17 124.58-25.17h416l-112-112 80-80 256 256-256 256z" />
<glyph unicode="&#xe704;" d="M64 832.72v-512h896v512h-896zM896 384.72h-768v256h768v-256zM64 64.72h896v-128h-896v128zM64 256.72h896v-128h-896v128z" />
<glyph unicode="&#xe705;" d="M704 896h-96v-128l-160-256-256-32v-80l108-108-300-420 420 300 108-108h80l48 256 240 160h128v96l-320 320zM842.75 559.88l-240-160-41.1-62.18-27.090-144.48-206.99 206.98 132.34 16.54 69.5 44.38 160 256 12.86 44.85 187.77-187.77-47.29-14.32z" />
<glyph unicode="&#xe706;" d="M63.998 0.007l831.995 831.995 80.001-80.001-831.995-831.995-80.001 80.001zM709.82 384l-197.82-197.82v-314.18h512v512zM512 549.82v346.18h-512v-512h346.18z" />
<glyph unicode="&#xe707;" d="M921.5 483.2c-6.8 0-13.3-0.7-19.7-2-24.5 62.9-72.5 114-133.2 142.7 0.5 4 0.8 8 0.8 12.1 0 53.3-43.2 96.5-96.5 96.5-22.6 0-43.3-7.8-59.8-20.8v-151.3c16.4-13 37.2-20.8 59.8-20.8 32.9 0 62 16.5 79.4 41.7 49.7-24.5 88.7-67.3 108.2-119.7-21.7-17.7-35.5-44.6-35.5-74.8 0-30.5 14.2-57.7 36.3-75.3-19.2-53.4-58.6-97-108.9-121.8-17.4 25.2-46.5 41.7-79.4 41.7-22.6 0-43.3-7.8-59.8-20.8v-151.6c16.4-13 37.2-20.8 59.8-20.8 53.3 0 96.5 43.2 96.5 96.5 0 4.1-0.3 8.2-0.8 12.1 61.4 29.1 109.8 81.2 134 145.2 6.1-1.2 12.4-1.9 18.8-1.9 53.3 0 96.5 43.2 96.5 96.5 0 53.4-43.2 96.6-96.5 96.6zM0 8.7l560.3-101.9v954.4l-559.1-101.9-1.2-750.6zM209.9 559c39.4 24.9 87.5 17 130.9 10.9 0.6-26.4 1.3-52.9 1.9-79.3-36.2 11.4-82.3 34.4-112.1-2.4-20.7-54.2 44.9-74.6 76.6-102.9 61.9-40.1 67.2-143 9.6-188.8-45.7-33.1-105.5-19.1-153.6 0.6-0.6 28-1.3 56-2.2 84.1 30.9-22.8 76.6-56.5 113.4-25.2 28.5 47.8-27.5 78.2-59.8 101.3-69.5 42-72.1 156.8-4.7 201.7z" />
<glyph unicode="&#xe708;" d="M1024 704h-1024v-640h1024v640zM240 128l-16 64-96 96-64 16v160l64 16 96 96 16 64h544l16-64 96-96 64-16v-160l-64-16-96-96-16-64h-544zM512 576c-106.040 0-192-85.96-192-192s85.96-192 192-192c106.040 0 192 85.96 192 192s-85.96 192-192 192zM560 256h-64v168l-16-24-48 32 64 80h64v-256z" />
<glyph unicode="&#xe709;" d="M896 704c-59.64 0-109.76-40.79-123.97-96 0 0-132.040 0-132.040 0h-388.020c-14.21 55.21-64.32 96-123.97 96-70.69 0-128-57.31-128-128s57.31-128 128-128c59.64 0 109.76 40.79 123.97 96h264.66c-2.46-3.29-4.88-6.69-7.25-10.25-26.38-39.57-43.33-90.44-59.73-139.63-35.29-105.85-61.62-170.12-129.65-170.12h-68.030c-14.21 55.21-64.32 96-123.97 96-70.69 0-128-57.31-128-128s57.31-128 128-128c59.64 0 109.76 40.79 123.97 96h68.030c28.78 0 54.96 7.16 77.82 21.27 20.010 12.36 37.29 29.69 52.81 52.98 26.38 39.57 43.33 90.44 59.73 139.63 35.28 105.84 61.61 170.11 129.63 170.12h132.040c14.21-55.21 64.32-96 123.97-96 70.69 0 128 57.31 128 128s-57.31 128-128 128zM128 504c-39.7 0-72 32.3-72 72s32.3 72 72 72 72-32.3 72-72-32.3-72-72-72zM128 120c-39.7 0-72 32.3-72 72s32.3 72 72 72 72-32.3 72-72-32.3-72-72-72z" />
<glyph unicode="&#xe70a;" d="M896 320c-59.64 0-109.76-40.79-123.97-96h-68.030c-68.030 0-94.36 64.27-129.64 170.12-16.4 49.2-33.35 100.070-59.73 139.63-2.37 3.56-4.79 6.96-7.25 10.25h264.66c14.21-55.21 64.33-96 123.97-96 70.69 0 128 57.31 128 128s-57.31 128-128 128c-59.64 0-109.76-40.79-123.97-96h-388.020c0 0-132.040 0-132.040 0-14.21 55.21-64.32 96-123.97 96-70.7 0-128.010-57.31-128.010-128s57.31-128 128-128c59.64 0 109.76 40.79 123.97 96h132.040c68.020-0.010 94.35-64.28 129.63-170.12 16.4-49.2 33.35-100.070 59.73-139.63 15.53-23.29 32.8-40.62 52.81-52.98 22.86-14.11 49.040-21.27 77.82-21.27h68.030c14.21-55.21 64.32-96 123.97-96 70.69 0 128 57.31 128 128s-57.31 128-128 128zM128 504c-39.7 0-72 32.3-72 72s32.3 72 72 72 72-32.3 72-72-32.3-72-72-72z" />
<glyph unicode="&#xe70b;" d="M816 768l-22.63-9.37-144-144-3.41-41.23 67.16-94.030-80.58-120.86 7.37 103.21-9.29 24.91-79.070 79.070 84.53 154.98-28.080 47.32h-608v-704h448v-64h-256v-64h640v64h-256v64h448v704h-208zM960 128h-896v576h490.090l-70.19-128.68 5.47-37.95 85.67-85.67-14.96-209.42 58.54-20.030 160 240-0.59 36.35-64.24 89.94 115.46 115.46h130.75v-576z" />
<glyph unicode="&#xe70c;" d="M64 576h256v-64h-256v64zM384 576h256v-64h-256v64zM704 576h256v-64h-256v64zM64 448h896v-512h-896v512zM64 832h176v-192h-176v192z" />
<glyph unicode="&#xe70d;" d="M64 640h256v-512h-256v512zM384 640h256v-512h-256v512zM704 640h256v-512h-256v512zM64 832h896v-128h-896v128zM64 64h896v-128h-896v128z" />
<glyph unicode="&#xe70e;" d="M64 832h704v-896h-704v896zM832 832h128v-896h-128v896z" />
<glyph unicode="&#xe70f;" d="M64 832h128v-896h-128v896zM256 832h704v-896h-704v896z" />
<glyph unicode="&#xe710;" d="M64 832h176v-896h-176v896zM304 832h176v-896h-176v896zM544 832h176v-896h-176v896zM784 832h176v-896h-176v896z" />
<glyph unicode="&#xe711;" d="M64 832h256v-896h-256v896zM384 832h256v-896h-256v896zM704 832h256v-896h-256v896z" />
<glyph unicode="&#xe712;" d="M64 832h414.22v-896h-414.22v896zM545.78 832h414.22v-896h-414.22v896z" />
<glyph unicode="&#xe713;" d="M512 192l512 320-512 320-512-320v-512h64v472zM128 356.53v-164.53l384-240 384 240v164.53l-384-240z" />
<glyph unicode="&#xe714;" d="M656 640h256l-256.020 256zM591.98 896h-463.98v-1024h784v704h-320l-0.020 320zM768-64h-512v64l160 64h192l160-64v-64zM688 304c0-97.2-78.8-176-176-176s-176 78.8-176 176 78.8 176 176 176 176-78.8 176-176z" />
<glyph unicode="&#xe715;" d="M1024 384v256h-448l-128 128h-448v-384h384v-192h-384v-192h1024v192h-192v192h192zM768 160l-64-32h-128l-128 32v256l128 32h128l64-64v-224zM608 384l-96-16v-48h112l16-16v-32l-16-16h-112v-48l96-16h96v192h-64z" />
<glyph unicode="&#xe716;" d="M259.68 65.58l-228.98 550.92 88.65 36.84 184.16-443.1 180.020 442.76 88.93-36.16-224-550.92zM754.68 51.2c-30.14 0-64.080 2.070-106.83 6.5l-41.25 4.28v577.44l36.68 7.59c18.86 3.9 56.97 10.45 100.31 10.45 54.090 0 98.88-10.16 133.11-30.19 34.29-20.070 75.17-60.28 75.17-137.88 0-52.53-17.69-88.020-38-111.45 24.22-14.060 43.010-33.21 55.85-56.93 13.46-24.83 20.28-54.75 20.28-88.91 0-84.17-42.87-126.89-78.82-147.91-37.98-22.2-89.17-32.99-156.5-32.99zM698.6 145.49c20.99-1.55 39.32-2.29 56.080-2.29 132.25 0 143.32 45.89 143.32 88.9 0 53.11-20.070 82.37-125.34 84.34-16.25-1.58-33.62-2.32-54.36-2.32-6.83 0-13.46 0.080-19.7 0.18v-168.81zM698.6 562.74v-155.48c3.65 0.1 7.36 0.21 11.13 0.32 16.23 0.48 33.020 0.97 50.19 0.97 2.92 0 5.81-0.010 8.61-0.040 75.73 8.53 91.35 38.53 91.35 80.88 0 36.45-15.84 50.4-29.64 58.47-19.67 11.51-49.63 17.59-86.65 17.59-16.21 0.010-31.69-1.17-44.99-2.71z" />
<glyph unicode="&#xe717;" d="M924.78 366.39c-22.57 53.35-54.86 101.26-96 142.39-26.020 26.020-54.75 48.5-85.85 67.22h161.65c11.070-19.12 31.73-32 55.42-32 35.35 0 64 28.65 64 64s-28.65 64-64 64c-23.69 0-44.35-12.88-55.42-32h-296.58v64h-192v-64h-296.58c-11.070 19.12-31.73 32-55.42 32-35.35 0-64-28.65-64-64s28.65-64 64-64c23.69 0 44.35 12.88 55.42 32h161.65c-31.1-18.72-59.83-41.2-85.85-67.22-41.13-41.13-73.43-89.040-96-142.39-23.37-55.25-35.22-113.92-35.22-174.39h-64v-192h192v192h-64c0 178.6 122.56 329.11 288 371.85v-51.85h192v51.85c165.44-42.74 288-193.25 288-371.85h-64v-192h192v192h-64c0 60.47-11.85 119.14-35.22 174.39zM128 64h-64v64h64v-64zM544 576h-64v64h64v-64zM960 64h-64v64h64v-64z" />
<glyph unicode="&#xe718;" d="M992 356v80l-64-10.67v90.67l-80-16v-88l-96-16v88l-80-16v-85.33l-64-10.67v-80l64 10.67v-96l-64-10.67v-80l64 10.67v-90.67l80 16v88l96 16v-88l80 16v85.33l64 10.67v80l-64-10.67v96l64 10.67zM848 236l-96-16v96l96 16v-96zM359.6 640c62.46 0 121.79-19.77 171.57-57.16l57.66 76.76c-66.54 49.98-145.81 76.4-229.23 76.4-52.020 0-99.95-10.45-142.45-31.060-40.72-19.74-75.86-48.46-104.46-85.37-26.75-34.52-47.26-75.55-60.97-121.97-13.090-44.29-19.72-92.6-19.72-143.6s6.63-99.31 19.71-143.6c13.71-46.42 34.22-87.46 60.97-121.97 28.6-36.9 63.75-65.63 104.46-85.37 42.51-20.61 90.44-31.060 142.46-31.060 83.42 0 162.69 26.42 229.23 76.4l-57.66 76.76c-49.78-37.39-109.11-57.16-171.57-57.16-170.76 0-231.6 147.74-231.6 286s60.84 286 231.6 286z" />
<glyph unicode="&#xe719;" d="M896 640l-256.020 256 0.020-256zM896 576h-320l-0.020 320h-447.98v-576h768zM64 256h896v-384h-896v384z" />
<glyph unicode="&#xe71a;" d="M0 768v-832h1024v832h-1024zM768 704h64v-64h-64v64zM640 704h64v-64h-64v64zM960 0h-896v576h896v-576zM960 640h-64v64h64v-64zM736 256l16 48-84.33 21.080c-3.69 15.54-9.64 30.19-17.49 43.61l42.84 55.080-22.63 45.25-74.55-44.73c-13.24 8.16-27.76 14.45-43.19 18.49l-8.65 69.22-48 16-21.080-84.33c-15.54-3.69-30.19-9.64-43.61-17.49l-55.080 42.84-45.25-22.63 44.73-74.55c-8.16-13.24-14.45-27.76-18.49-43.19l-69.22-8.65-16-48 84.33-21.080c3.69-15.54 9.64-30.19 17.49-43.61l-42.84-55.080 22.63-45.25 74.55 44.73c13.24-8.16 27.76-14.45 43.19-18.49l8.65-69.22 48-16 21.080 84.33c15.54 3.69 30.19 9.64 43.61 17.49l55.080-42.84 45.25 22.63-44.73 74.55c8.16 13.24 14.45 27.76 18.49 43.19l69.22 8.65zM512 224c-35.35 0-64 28.65-64 64s28.65 64 64 64 64-28.65 64-64-28.65-64-64-64z" />
<glyph unicode="&#xe71b;" d="M416 288h192v-416h-192v416zM416 896h192v-416h-192v416zM608 480h416v-192h-416v192zM0 480h416v-192h-416v192z" />
<glyph unicode="&#xe71c;" d="M256 704v-520.99c-22.88 9.090-50.4 12.91-80 9.81-79.53-8.32-144-63.43-144-123.080s64.47-101.25 144-92.92c79.53 8.33 144 63.44 144 123.080 0 4.12-0.32 8.15-0.92 12.090h0.92v470.41l512 51.2v-386.59c-22.88 9.090-50.4 12.91-80 9.81-79.53-8.33-144-63.44-144-123.080 0-59.65 64.47-101.25 144-92.92s144 63.44 144 123.080c0 4.12-0.32 8.15-0.92 12.090h0.92v592.010l-640-64z" />
<glyph unicode="&#xe71d;" d="M128 0h768v-64h-768v64zM128 128h768v-64h-768v64zM576 896v-320h320c0 176.73-143.27 320-320 320zM512 192c176.73 0 320 143.27 320 320h-320v320c-176.73 0-320-143.27-320-320s143.27-320 320-320z" />
<glyph unicode="&#xe71e;" d="M704 896h-96v-128l-160-256-256-32v-80l108-108-300-420 420 300 108-108h80l48 256 240 160h128c0 4.36 0 96 0 96l-320 320z" />
<glyph unicode="&#xe71f;" d="M652.41 416c-12.25 53.76-54.65 96.17-108.41 108.41v371.59h-64v-371.59c-53.76-12.25-96.17-54.65-108.41-108.41h-371.59v-64h371.59c12.25-53.76 54.65-96.17 108.41-108.41v-371.59h64v371.59c53.76 12.25 96.17 54.65 108.41 108.41h371.59v64h-371.59zM544 310.7c-9.81-4.3-20.63-6.7-32-6.7s-22.19 2.4-32 6.7c-18.42 8.070-33.23 22.88-41.3 41.3-4.3 9.81-6.7 20.63-6.7 32s2.4 22.19 6.7 32c8.070 18.42 22.88 33.23 41.3 41.3 9.81 4.3 20.63 6.7 32 6.7s22.19-2.4 32-6.7c18.42-8.070 33.23-22.88 41.3-41.3 4.3-9.81 6.7-20.63 6.7-32s-2.4-22.19-6.7-32c-8.070-18.42-22.88-33.23-41.3-41.3z" />
<glyph unicode="&#xe720;" d="M0 896l512-512-512-512z" />
<glyph unicode="&#xe721;" d="M64 832h318.22v-128h-318.22v128zM65.78 640h414.22v-64h-414.22v64zM65.78 384h414.22v-64h-414.22v64zM65.78 512h414.22v-64h-414.22v64zM65.78 256h318.22v-64h-318.22v64zM543.11 832v-132.44l0.89 4.44 192-192 112 112-112 112 48 48 112-112 63.11 63.11v96.89zM832 416h127.11v223.11l-175.11-175.11zM543.11 416h192.89l-192.89 192.89z" />
<glyph unicode="&#xe722;" d="M512 832h256v-128h-256v128zM512 640h448v-64h-448v64zM512 512h448v-64h-448v64zM512 384h448v-64h-448v64zM512 256h448v-64h-448v64zM512 128h320v-64h-320v64zM384 880h-64v-48h-128v48h-64v-48h-64v-64h384v64h-64zM64 512h384v224h-384v-224zM240 704v-1.27l0.59 1.27h47.41v-160h-64v100.74l-25.48 5.93 41.48 53.33z" />
<glyph unicode="&#xe723;" d="M64 832h318.22v-128h-318.22v128zM65.78 640h414.22v-64h-414.22v64zM65.78 512h414.22v-64h-414.22v64zM65.78 384h254.22v-128h-254.22v128zM544 832h318.22v-128h-318.22v128zM545.78 640h414.22v-64h-414.22v64zM545.78 512h414.22v-64h-414.22v64zM545.78 384h414.22v-64h-414.22v64zM545.78 256h414.22v-64h-414.22v64zM545.78 128h254.22v-128h-254.22v128z" />
<glyph unicode="&#xe724;" d="M48 640h414.22v-512h-414.22v512zM529.78 640h414.22v-512h-414.22v512zM48 832h896v-128h-896v128zM48 64h896v-128h-896v128z" />
<glyph unicode="&#xe725;" d="M64 640h256v-192h-256v192zM384 640h256v-192h-256v192zM704 640h256v-192h-256v192zM64 384h256v-192h-256v192zM384 384h256v-192h-256v192zM704 384h256v-192h-256v192zM64 128h256v-192h-256v192zM384 128h256v-192h-256v192zM704 128h256v-192h-256v192zM64 832h896v-128h-896v128z" />
<glyph unicode="&#xe726;" d="M64 640h256v-64h-256v64zM64 512h256v-64h-256v64zM64 384h256v-64h-256v64zM384 640h576v-64h-576v64zM384 512h576v-64h-576v64zM384 384h576v-64h-576v64zM384 256h576v-64h-576v64zM384 128h576v-64h-576v64zM384 0h384v-64h-384v64zM64 832h896v-128h-896v128z" />
<glyph unicode="&#xe727;" d="M64 640h896v-64h-896v64zM64 512h896v-64h-896v64zM64 384h896v-64h-896v64zM64 256h896v-64h-896v64zM64 128h896v-64h-896v64zM64 0h640v-64h-640v64zM64 832h896v-128h-896v128z" />
<glyph unicode="&#xe728;" d="M64 320h448v-128h-448v128zM64 128h896v-64h-896v64zM64 0h768v-64h-768v64zM64 832h448v-128h-448v128zM64 640h896v-64h-896v64zM64 512h768v-64h-768v64z" />
</font>
</defs>
</svg>
